<svg width="18" height="18" viewBox="0 0 18 18" fill="none" xmlns="http://www.w3.org/2000/svg">
<path d="M9 4.5V6.75" stroke="#004368" stroke-linecap="round" stroke-linejoin="round"/>
<path d="M13.25 10.5C14.4236 10.5 15.375 9.66052 15.375 8.625C15.375 7.58948 14.4236 6.75 13.25 6.75H4.75C3.5764 6.75 2.625 7.58948 2.625 8.625C2.625 9.66052 3.5764 10.5 4.75 10.5C5.77806 10.5 6.67811 9.85583 6.875 9C7.07189 9.85583 7.97197 10.5 9 10.5C10.028 10.5 10.9281 9.85583 11.125 9C11.3219 9.85583 12.2219 10.5 13.25 10.5Z" stroke="#004368" stroke-linejoin="round"/>
<path d="M3.75 10.5L4.14067 12.4347C4.53399 14.3826 4.73066 15.3565 5.39706 15.9283C6.06347 16.5 7.00206 16.5 8.87925 16.5H9.12075C10.9979 16.5 11.9365 16.5 12.6029 15.9283C13.2694 15.3565 13.466 14.3826 13.8593 12.4347L14.25 10.5" stroke="#004368" stroke-linecap="round" stroke-linejoin="round"/>
<path d="M10.125 3.375C10.125 3.99632 9.6213 4.5 9 4.5C8.3787 4.5 7.875 3.99632 7.875 3.375C7.875 2.75368 9 1.5 9 1.5C9 1.5 10.125 2.75368 10.125 3.375Z" stroke="#B0C5D0" stroke-linejoin="round"/>
</svg>
