<svg width="18" height="18" viewBox="0 0 18 18" fill="none" xmlns="http://www.w3.org/2000/svg">
<path d="M2.25991 3.74316C2.17002 4.53816 2.66446 6.31717 4.86702 6.31717" stroke="#B0C5D0" stroke-linecap="round"/>
<path d="M13.1963 6.28558C14.1267 6.43408 15.8349 5.62408 15.7467 3.75208" stroke="#B0C5D0" stroke-linecap="round"/>
<path d="M15.7446 15.7491C15.7896 14.9571 15.1332 13.1661 13.1992 13.0671" stroke="#B0C5D0" stroke-linecap="round"/>
<path d="M4.83869 13.1031C4.23757 12.9231 2.25977 13.7511 2.25977 15.7491" stroke="#B0C5D0" stroke-linecap="round"/>
<path d="M2.25977 9.67407H4.46232" stroke="#B0C5D0" stroke-linecap="round"/>
<path d="M15.7448 9.67407H13.5872" stroke="#B0C5D0" stroke-linecap="round"/>
<path d="M9.00244 12.3741V15.2091" stroke="#004368" stroke-linecap="round"/>
<path d="M6.9974 4.58915C7.01538 3.82415 7.38397 2.24915 9.00215 2.24915C10.4406 2.24915 10.9395 3.46415 11.007 4.58915M4.69595 7.06415C4.78586 6.47915 5.46909 5.11115 7.02437 4.97615C8.5976 4.91675 10.7552 4.94015 11.1597 5.00315C11.6901 5.05034 12.9713 5.57915 13.3129 7.06415C13.4343 7.82912 13.3713 8.90911 13.3893 9.53911C13.3623 10.1691 13.4405 11.4467 13.3173 12.1041C13.2275 12.8241 12.742 13.8501 12.0768 14.4801C11.0878 15.5421 8.3729 16.6581 6.02648 14.5881C4.81282 13.4181 4.73191 12.2841 4.64201 11.8341C4.61791 11.5928 4.61903 10.4072 4.62403 9.26912C4.60605 8.28452 4.62923 7.33549 4.69595 7.06415Z" stroke="#004368"/>
</svg>
