<svg width="18" height="18" viewBox="0 0 18 18" fill="none" xmlns="http://www.w3.org/2000/svg">
<path d="M12 1.5V4.5M6 1.5V4.5" stroke="#004368" stroke-linecap="round" stroke-linejoin="round"/>
<path d="M9.75 3H8.25C5.42157 3 4.00736 3 3.12868 3.87868C2.25 4.75736 2.25 6.17157 2.25 9V10.5C2.25 13.3284 2.25 14.7427 3.12868 15.6213C4.00736 16.5 5.42157 16.5 8.25 16.5H9.75C12.5784 16.5 13.9927 16.5 14.8713 15.6213C15.75 14.7427 15.75 13.3284 15.75 10.5V9C15.75 6.17157 15.75 4.75736 14.8713 3.87868C13.9927 3 12.5784 3 9.75 3Z" stroke="#004368" stroke-linecap="round" stroke-linejoin="round"/>
<path d="M2.25 7.5H15.75" stroke="#004368" stroke-linecap="round" stroke-linejoin="round"/>
<path d="M9.38873 10.075L9.78465 10.8734C9.83865 10.9846 9.98265 11.0911 10.1042 11.1115L10.8218 11.2318C11.2808 11.3089 11.3888 11.6446 11.058 11.9758L10.5001 12.5383C10.4056 12.6336 10.3538 12.8173 10.3831 12.9489L10.5428 13.6453C10.6688 14.1965 10.3786 14.4097 9.8949 14.1217L9.22223 13.7202C9.10073 13.6476 8.90055 13.6476 8.7768 13.7202L8.10413 14.1217C7.6227 14.4097 7.33019 14.1943 7.45619 13.6453L7.61595 12.9489C7.64513 12.8173 7.59345 12.6336 7.49893 12.5383L6.94099 11.9758C6.61253 11.6446 6.71826 11.3089 7.17722 11.2318L7.89488 11.1115C8.01413 11.0911 8.15813 10.9846 8.21213 10.8734L8.60805 10.075C8.82405 9.64168 9.17498 9.64168 9.38873 10.075Z" stroke="#B0C5D0" stroke-linecap="round" stroke-linejoin="round"/>
</svg>
