<svg width="389" height="390" viewBox="0 0 389 390" fill="none" xmlns="http://www.w3.org/2000/svg">
<path d="M93.4193 98.1651C134.216 57.0595 121.715 31.8675 149.63 12.8363C192.583 -16.4473 273.571 8.17474 320.866 48.4552C378.793 97.7887 408.679 187.866 374.633 269.356C338.376 356.142 242.979 401.19 157.855 387.614C81.8399 375.49 8.39292 317.233 0.904839 245.3C0.0933641 237.504 -4.76699 193.638 20.359 157.3C41.1302 127.266 61.0814 130.749 93.4193 98.1651Z" fill="#E6ECF0"/>
<path d="M184.086 32.229L178.104 33.5518L178.076 40.2506C176.746 40.8057 175.478 41.4607 174.286 42.2156L168.802 38.3962L164.283 42.5368L167.603 48.3531C166.741 49.4866 165.974 50.6903 165.311 51.9513L158.643 51.3878L156.797 57.236L162.571 60.6067C162.39 62.006 162.331 63.4351 162.39 64.8749L156.336 67.7245L157.658 73.7131L164.349 73.7429C164.903 75.0742 165.558 76.3438 166.312 77.5368L162.497 83.0299L166.633 87.5532L172.443 84.2293C173.575 85.0927 174.777 85.8604 176.037 86.5239L175.474 93.1994L181.316 95.0474L184.683 89.2673C186.08 89.448 187.508 89.5076 188.946 89.448L191.793 95.5089L197.775 94.1862L197.802 87.4873C199.132 86.9322 200.4 86.2772 201.592 85.5223L207.077 89.3417L211.595 85.2012L208.275 79.3848C209.137 78.2513 209.904 77.0477 210.567 75.7866L217.235 76.3501L219.081 70.5019L213.307 67.1312C213.488 65.7319 213.547 64.3028 213.488 62.8631L219.542 60.0134L218.221 54.0248L211.529 53.9972C210.975 52.6659 210.321 51.3963 209.566 50.2033L213.382 44.7123L209.246 40.189L203.436 43.5129C202.304 42.6495 201.101 41.8818 199.841 41.2183L200.404 34.5428L194.563 32.6947L191.196 38.4749C189.798 38.2941 188.37 38.2346 186.932 38.2941L184.086 32.229ZM203.334 60.4621C205.214 68.975 199.844 77.4028 191.34 79.2849C182.837 81.1669 174.418 75.7908 172.538 67.2779C170.658 58.7651 176.028 50.3372 184.532 48.4552C193.035 46.571 201.454 51.9471 203.334 60.4621Z" fill="white"/>
<path d="M236.691 19.095L232.982 19.7053L232.74 23.8076C231.907 24.1032 231.109 24.4626 230.352 24.8836L227.119 22.3572L224.211 24.7412L226.051 28.416C225.484 29.0816 224.974 29.7919 224.526 30.5426L220.46 29.9727L219.132 33.4922L222.556 35.7507C222.399 36.6035 222.314 37.4754 222.301 38.3601L218.497 39.9019L219.107 43.615L223.204 43.8574C223.5 44.6911 223.859 45.4907 224.279 46.2477L221.758 49.4845L224.139 52.3958L227.81 50.5542C228.475 51.122 229.184 51.6324 229.934 52.0811L229.365 56.1514L232.88 57.4806L235.136 54.0525C235.988 54.2098 236.859 54.2949 237.743 54.3077L239.283 58.1164L242.992 57.5061L243.234 53.4038C244.067 53.1082 244.866 52.7488 245.622 52.3278L248.855 54.8521L251.763 52.4681L249.923 48.7933C250.491 48.1277 251 47.4174 251.449 46.6667L255.515 47.2366L256.842 43.7171L253.418 41.4586C253.575 40.6058 253.66 39.7339 253.673 38.8492L257.477 37.3074L256.868 33.5943L252.77 33.3519C252.475 32.5182 252.116 31.7186 251.695 30.9615L254.217 27.7248L251.835 24.8135L248.165 26.6551C247.5 26.0873 246.79 25.5769 246.04 25.1282L246.61 21.0578L243.094 19.7287L240.838 23.1547C239.986 22.9973 239.115 22.9123 238.231 22.8995L236.691 19.095ZM247.534 37.0394C248.398 42.3177 244.825 47.3004 239.553 48.166C234.28 49.0315 229.303 45.4545 228.439 40.1762C227.574 34.8979 231.147 29.9152 236.419 29.0497C241.692 28.1842 246.669 31.7612 247.534 37.0394Z" fill="white"/>
<path d="M363.908 77.9153H356.898L331.944 372.232H338.293C345.183 372.232 351.252 366.641 351.853 359.747L375.296 90.4029C375.893 83.5041 370.795 77.9153 363.908 77.9153Z" fill="#B0C5D0"/>
<path d="M358.402 77.9132H50.4516C43.5626 77.9132 37.4935 83.5041 36.8924 90.3986L13.4488 359.744C12.8476 366.641 17.9459 372.23 24.8349 372.23H332.785C339.674 372.23 345.743 366.639 346.345 359.744L369.788 90.4008C370.389 83.5041 365.291 77.9132 358.402 77.9132Z" fill="white"/>
<path d="M27.8344 193.944C27.8132 193.944 27.7941 193.944 27.7728 193.942C27.3841 193.908 27.0973 193.566 27.1313 193.178L33.5211 119.772C33.5551 119.382 33.8929 119.097 34.2837 119.129C34.6725 119.163 34.9592 119.506 34.9253 119.893L28.5354 193.3C28.5057 193.668 28.1977 193.944 27.8344 193.944Z" fill="black"/>
<path d="M323.077 78.6192H113.067C112.678 78.6192 112.362 78.3024 112.362 77.9132C112.362 77.524 112.678 77.2072 113.067 77.2072H323.077C323.466 77.2072 323.783 77.524 323.783 77.9132C323.783 78.3045 323.468 78.6192 323.077 78.6192Z" fill="black"/>
<path d="M24.2593 372.936C20.7372 372.936 17.538 371.562 15.2544 369.068C12.9581 366.56 11.8641 363.228 12.1721 359.683L18.1286 291.252C18.1626 290.863 18.5003 290.578 18.8912 290.61C19.28 290.644 19.5667 290.986 19.5327 291.373L13.5741 359.806C13.3001 362.951 14.2645 365.901 16.2911 368.115C18.3049 370.314 21.1344 371.526 24.2571 371.526C24.6459 371.526 24.9624 371.843 24.9624 372.232C24.9624 372.621 24.648 372.936 24.2593 372.936Z" fill="black"/>
<path d="M144.351 372.885H119.663C119.274 372.885 118.957 372.568 118.957 372.179C118.957 371.79 119.274 371.473 119.663 371.473H144.351C144.74 371.473 145.056 371.79 145.056 372.179C145.056 372.568 144.742 372.885 144.351 372.885Z" fill="black"/>
<path d="M287.515 372.885H249.365C248.976 372.885 248.66 372.568 248.66 372.179C248.66 371.79 248.976 371.473 249.365 371.473H287.515C287.903 371.473 288.22 371.79 288.22 372.179C288.22 372.568 287.903 372.885 287.515 372.885Z" fill="black"/>
<path d="M98.985 352.32C98.9637 352.32 98.9446 352.32 98.9234 352.318C98.5346 352.284 98.2479 351.944 98.2818 351.555L119.92 99.4113C119.954 99.0222 120.296 98.7351 120.682 98.7691C121.071 98.8031 121.358 99.1434 121.324 99.5326L99.686 351.676C99.6541 352.042 99.3461 352.32 98.985 352.32Z" fill="#004368"/>
<path d="M187.427 265.301C187.406 265.301 187.383 265.301 187.361 265.297C186.975 265.26 186.688 264.916 186.724 264.529L202.151 99.4048C202.187 99.0157 202.527 98.7265 202.917 98.769C203.306 98.8051 203.589 99.1496 203.553 99.5367L188.126 264.661C188.094 265.027 187.788 265.301 187.427 265.301Z" fill="#004368"/>
<path d="M262.548 327.788C262.525 327.788 262.501 327.788 262.476 327.783C262.089 327.745 261.807 327.398 261.845 327.009L284.853 99.3985C284.893 99.0114 285.24 98.7265 285.626 98.7669C286.013 98.8052 286.295 99.1518 286.257 99.541L263.249 327.152C263.213 327.518 262.907 327.788 262.548 327.788Z" fill="#004368"/>
<path d="M349.227 138.516H49.9036C49.5148 138.516 49.1983 138.199 49.1983 137.81C49.1983 137.42 49.5148 137.104 49.9036 137.104H349.227C349.616 137.104 349.932 137.42 349.932 137.81C349.932 138.201 349.616 138.516 349.227 138.516Z" fill="#004368"/>
<path d="M190.148 112.352C190.49 108.656 187.841 105.587 184.23 105.587H137.666C134.055 105.587 130.864 108.656 130.543 112.352L129.997 118.668C129.677 122.358 132.343 125.343 135.947 125.343H182.427C186.032 125.343 189.226 122.355 189.566 118.668L190.148 112.352Z" fill="#B0C5D0"/>
<path d="M273.688 112.352C274.057 108.656 271.432 105.587 267.821 105.587H221.256C217.645 105.587 214.433 108.656 214.083 112.352L213.488 118.668C213.139 122.358 215.78 125.343 219.385 125.343H265.864C269.469 125.343 272.687 122.355 273.057 118.668L273.688 112.352Z" fill="#B0C5D0"/>
<path d="M108.015 112.352C108.328 108.656 105.659 105.587 102.048 105.587H55.484C51.8727 105.587 48.7012 108.69 48.408 112.384L47.9067 118.764C47.6136 122.453 50.3114 125.343 53.9163 125.343H100.396C104 125.343 107.172 122.355 107.484 118.668L108.015 112.352Z" fill="#B0C5D0"/>
<path d="M355.821 112.352C356.218 108.656 353.614 105.587 350.005 105.587H303.44C299.829 105.587 296.596 108.656 296.218 112.352L295.574 118.668C295.198 122.358 297.815 125.343 301.418 125.343H347.897C351.502 125.343 354.746 122.355 355.143 118.668L355.821 112.352Z" fill="#B0C5D0"/>
<path d="M99.4077 155.45H49.8101C47.518 155.45 45.5084 157.419 45.3236 159.756L43.5328 182.316C43.348 184.642 45.0517 186.497 47.3395 186.497H96.7927C99.0785 186.497 101.092 184.678 101.29 182.352L103.202 159.72C103.399 157.387 101.7 155.45 99.4077 155.45Z" fill="#E6ECF0"/>
<path d="M61.3237 187.339H47.1144C45.8249 187.339 44.646 186.831 43.7941 185.908C42.9232 184.963 42.5004 183.706 42.6067 182.367L44.3974 159.776C44.6098 157.083 46.9381 154.895 49.587 154.895H59.6476C60.0364 154.895 60.3529 155.212 60.3529 155.601C60.3529 155.99 60.0385 156.307 59.6476 156.307H49.587C47.6561 156.307 45.9588 157.915 45.8016 159.888L44.0108 182.477C43.9365 183.419 44.2275 184.296 44.8286 184.948C45.4107 185.58 46.2222 185.927 47.1144 185.927H61.3237C61.7124 185.927 62.0289 186.244 62.0289 186.633C62.0289 187.022 61.7145 187.339 61.3237 187.339Z" fill="#004368"/>
<path d="M96.5676 187.339H79.0763C78.6876 187.339 78.371 187.022 78.371 186.633C78.371 186.244 78.6876 185.927 79.0763 185.927H96.5676C98.4922 185.927 100.196 184.327 100.362 182.362L102.273 159.773C102.354 158.825 102.067 157.942 101.464 157.285C100.884 156.654 100.075 156.307 99.1826 156.307H88.0747C87.686 156.307 87.3695 155.99 87.3695 155.601C87.3695 155.212 87.6839 154.895 88.0747 154.895H99.1826C100.474 154.895 101.653 155.405 102.503 156.33C103.374 157.281 103.792 158.544 103.678 159.893L101.766 182.482C101.541 185.159 99.2081 187.339 96.5676 187.339Z" fill="#004368"/>
<path d="M98.917 164.786C98.832 165.796 97.9632 166.74 96.9733 166.74H61.3343C60.3444 166.74 59.603 165.794 59.6837 164.786L59.6922 164.72C59.7729 163.71 60.6396 162.978 61.6296 162.978H97.2813C98.2712 162.978 99.0105 163.712 98.9255 164.72L98.917 164.786Z" fill="white"/>
<path d="M98.0354 175.191C97.9505 176.199 97.0816 177.091 96.0917 177.091H60.4867C59.4968 177.091 58.7575 176.199 58.8404 175.191L58.8468 175.332C58.9275 174.324 59.7921 173.799 60.782 173.799H96.3997C97.3897 173.799 98.1289 174.324 98.0439 175.332L98.0354 175.191Z" fill="white"/>
<path d="M56.236 164.556C56.0873 166.511 54.6067 168.152 52.6885 168.152H52.6332C50.715 168.152 49.3958 166.513 49.5467 164.556L49.5509 164.488C49.7039 162.532 51.261 161.096 53.1813 161.096H53.2365C55.1569 161.096 56.3911 162.532 56.2403 164.488L56.236 164.556Z" fill="white"/>
<path d="M181.095 155.45H131.499C129.207 155.45 127.183 157.419 126.979 159.756L125.016 182.316C124.814 184.642 126.503 186.497 128.791 186.497H178.244C180.53 186.497 182.558 184.678 182.773 182.352L184.857 159.72C185.071 157.387 183.389 155.45 181.095 155.45Z" fill="#E6ECF0"/>
<path d="M178.019 187.339H142.777C142.388 187.339 142.072 187.022 142.072 186.633C142.072 186.244 142.388 185.927 142.777 185.927H178.021C179.95 185.927 181.666 184.325 181.847 182.356L183.931 159.767C184.018 158.819 183.737 157.936 183.143 157.281C182.569 156.652 181.764 156.305 180.872 156.305H169.764C169.375 156.305 169.059 155.988 169.059 155.599C169.059 155.21 169.375 154.893 169.764 154.893H180.872C182.163 154.893 183.34 155.403 184.183 156.328C185.05 157.279 185.46 158.546 185.335 159.895L183.251 182.484C183.002 185.161 180.657 187.339 178.019 187.339Z" fill="#004368"/>
<path d="M125.32 177.08C125.298 177.08 125.279 177.08 125.258 177.078C124.869 177.044 124.583 176.701 124.617 176.314L126.053 159.771C126.286 157.083 128.629 154.895 131.274 154.895H141.335C141.723 154.895 142.04 155.212 142.04 155.601C142.04 155.99 141.723 156.307 141.335 156.307H131.274C129.341 156.307 127.629 157.917 127.457 159.895L126.021 176.438C125.989 176.803 125.681 177.08 125.32 177.08Z" fill="#004368"/>
<path d="M180.186 164.786C180.092 165.796 179.217 166.74 178.227 166.74H142.588C141.598 166.74 140.863 165.794 140.952 164.786L140.963 164.72C141.052 163.71 141.925 162.978 142.915 162.978H178.567C179.557 162.978 180.288 163.712 180.196 164.72L180.186 164.786Z" fill="white"/>
<path d="M179.223 175.191C179.13 176.199 178.255 177.091 177.265 177.091H141.662C140.672 177.091 139.941 176.199 140.03 175.191L140.039 175.332C140.128 174.324 140.999 173.799 141.989 173.799H177.607C178.597 173.799 179.327 174.324 179.234 175.332L179.223 175.191Z" fill="white"/>
<path d="M137.711 164.492C137.539 166.447 135.848 168.152 133.929 168.152H133.874C131.956 168.152 130.533 166.447 130.705 164.492L130.703 164.537C130.873 162.581 132.561 161.096 134.482 161.096H134.537C136.457 161.096 137.881 162.581 137.709 164.537L137.711 164.492Z" fill="white"/>
<path d="M177.073 199.199H127.68C125.396 199.199 123.382 201.158 123.181 203.476L121.233 225.975C121.033 228.283 122.715 230.246 124.993 230.246H174.244C176.521 230.246 178.539 228.321 178.752 226.016L180.819 203.503C181.035 201.185 179.357 199.199 177.073 199.199Z" fill="#E6ECF0"/>
<path d="M154.968 230.845H127.78C127.391 230.845 127.074 230.528 127.074 230.139C127.074 229.75 127.391 229.433 127.78 229.433H154.968C155.357 229.433 155.674 229.75 155.674 230.139C155.674 230.528 155.357 230.845 154.968 230.845Z" fill="#004368"/>
<path d="M127.78 230.845H124.772C123.482 230.845 122.307 230.337 121.464 229.416C120.604 228.476 120.194 227.23 120.311 225.901L121.126 216.52C121.16 216.131 121.507 215.844 121.889 215.878C122.278 215.912 122.564 216.255 122.53 216.642L121.715 226.022C121.634 226.951 121.914 227.817 122.505 228.461C123.079 229.089 123.884 229.433 124.774 229.433H127.782C128.17 229.433 128.487 229.75 128.487 230.139C128.485 230.528 128.168 230.845 127.78 230.845Z" fill="#004368"/>
<path d="M122.957 204.26C122.936 204.26 122.917 204.26 122.896 204.258C122.507 204.224 122.22 203.882 122.254 203.495C122.486 200.826 124.82 198.652 127.457 198.652H151.283C151.671 198.652 151.988 198.969 151.988 199.358C151.988 199.748 151.671 200.064 151.283 200.064H127.457C125.532 200.064 123.831 201.659 123.658 203.618C123.627 203.984 123.319 204.26 122.957 204.26Z" fill="#004368"/>
<path d="M179.468 216.529C179.446 216.529 179.423 216.529 179.402 216.527C179.015 216.491 178.728 216.148 178.764 215.759L179.897 203.49C179.984 202.555 179.705 201.683 179.115 201.036C178.543 200.409 177.738 200.064 176.85 200.064H164.205C163.816 200.064 163.499 199.748 163.499 199.358C163.499 198.969 163.816 198.652 164.205 198.652H176.85C178.142 198.652 179.315 199.161 180.158 200.086C181.018 201.03 181.424 202.285 181.301 203.62L180.169 215.889C180.135 216.254 179.827 216.529 179.468 216.529Z" fill="#004368"/>
<path d="M176.181 207.999C176.09 209.001 175.221 209.549 174.233 209.549H138.741C137.755 209.549 137.02 209.001 137.109 207.999L137.124 207.725C137.213 206.723 138.087 205.787 139.072 205.787H174.577C175.565 205.787 176.287 206.723 176.196 207.725L176.181 207.999Z" fill="white"/>
<path d="M175.219 218.596C175.128 219.595 174.25 220.367 173.265 220.367H137.804C136.818 220.367 136.096 219.595 136.183 218.596L136.194 218.43C136.283 217.431 137.15 216.605 138.135 216.605H173.611C174.597 216.605 175.323 217.431 175.232 218.43L175.219 218.596Z" fill="white"/>
<path d="M133.866 207.948C133.696 209.887 132.001 211.431 130.091 211.431H130.036C128.124 211.431 126.72 209.887 126.887 207.948L126.898 207.89C127.068 205.951 128.761 204.375 130.673 204.375H130.728C132.64 204.375 134.046 205.951 133.876 207.89L133.866 207.948Z" fill="white"/>
<path d="M95.7816 199.199H46.3879C44.1043 199.199 42.0905 201.158 41.8887 203.476L39.9428 225.975C39.7431 228.283 41.4256 230.246 43.7028 230.246H92.9542C95.2314 230.246 97.2495 228.321 97.4619 226.016L99.5288 203.503C99.7434 201.185 98.0652 199.199 95.7816 199.199Z" fill="#E6ECF0"/>
<path d="M73.6763 230.845H46.4877C46.099 230.845 45.7824 230.528 45.7824 230.139C45.7824 229.75 46.099 229.433 46.4877 229.433H73.6763C74.0651 229.433 74.3816 229.75 74.3816 230.139C74.3816 230.528 74.0651 230.845 73.6763 230.845Z" fill="#004368"/>
<path d="M46.4877 230.845H43.4797C42.1903 230.845 41.0156 230.337 40.1722 229.416C39.3119 228.476 38.9019 227.23 39.0187 225.901L39.8345 216.52C39.8685 216.131 40.2147 215.844 40.5971 215.878C40.9858 215.912 41.2726 216.255 41.2386 216.642L40.4229 226.022C40.3422 226.951 40.6226 227.817 41.2131 228.461C41.7867 229.089 42.5918 229.433 43.4819 229.433H46.4898C46.8786 229.433 47.1951 229.75 47.1951 230.139C47.1908 230.528 46.8765 230.845 46.4877 230.845Z" fill="#004368"/>
<path d="M98.1756 216.529C98.1544 216.529 98.131 216.529 98.1098 216.527C97.7232 216.491 97.4364 216.148 97.4725 215.759L98.6047 203.49C98.6918 202.555 98.4136 201.683 97.823 201.036C97.2516 200.409 96.4465 200.064 95.5585 200.064H46.1648C44.2402 200.064 42.5387 201.659 42.3666 203.618C42.3326 204.007 41.9821 204.288 41.604 204.26C41.2152 204.226 40.9285 203.884 40.9625 203.497C41.194 200.828 43.5286 198.655 46.1648 198.655H95.5585C96.8501 198.655 98.0248 199.163 98.866 200.088C99.7264 201.032 100.132 202.287 100.009 203.622L98.8767 215.891C98.8427 216.254 98.5346 216.529 98.1756 216.529Z" fill="#004368"/>
<path d="M94.8894 207.999C94.7981 209.001 93.9292 209.549 92.9414 209.549H57.449C56.4633 209.549 55.7283 209.001 55.8175 207.999L55.8324 207.725C55.9216 206.723 56.7947 205.787 57.7804 205.787H93.2856C94.2734 205.787 94.9956 206.723 94.9043 207.725L94.8894 207.999Z" fill="white"/>
<path d="M93.9271 218.596C93.8358 219.595 92.9584 220.367 91.9728 220.367H56.51C55.5244 220.367 54.8021 219.595 54.8892 218.596L54.8998 218.43C54.9891 217.431 55.8558 216.605 56.8414 216.605H92.3169C93.3026 216.605 94.0291 217.431 93.9377 218.43L93.9271 218.596Z" fill="white"/>
<path d="M52.5738 207.948C52.4038 209.887 50.7087 211.431 48.7989 211.431H48.7437C46.8318 211.431 45.4277 209.887 45.5955 207.948L45.6061 207.89C45.7761 205.951 47.4691 204.375 49.381 204.375H49.4362C51.3481 204.375 52.7543 205.951 52.5844 207.89L52.5738 207.948Z" fill="white"/>
<path d="M264.579 155.45H214.983C212.691 155.45 210.652 157.419 210.431 159.756L208.292 182.316C208.071 184.642 209.747 186.497 212.033 186.497H261.486C263.772 186.497 265.815 184.678 266.047 182.352L268.307 159.72C268.541 157.387 266.871 155.45 264.579 155.45Z" fill="#E6ECF0"/>
<path d="M226.019 187.339H211.81C210.518 187.339 209.346 186.831 208.504 185.905C207.644 184.957 207.238 183.698 207.366 182.356L209.503 159.767C209.758 157.081 212.113 154.897 214.756 154.897H224.819C225.208 154.897 225.524 155.214 225.524 155.603C225.524 155.992 225.208 156.309 224.819 156.309H214.756C212.821 156.309 211.094 157.921 210.905 159.901L208.768 182.49C208.679 183.43 208.955 184.306 209.545 184.957C210.115 185.584 210.918 185.929 211.808 185.929H226.017C226.406 185.929 226.722 186.246 226.722 186.635C226.722 187.024 226.408 187.339 226.019 187.339Z" fill="#004368"/>
<path d="M261.263 187.339H243.772C243.383 187.339 243.066 187.022 243.066 186.633C243.066 186.244 243.383 185.927 243.772 185.927H261.263C263.194 185.927 264.925 184.323 265.123 182.352L267.383 159.763C267.479 158.814 267.205 157.934 266.614 157.279C266.047 156.652 265.246 156.307 264.356 156.307H253.248C252.859 156.307 252.543 155.99 252.543 155.601C252.543 155.212 252.859 154.895 253.248 154.895H264.356C265.65 154.895 266.822 155.405 267.659 156.333C268.519 157.285 268.921 158.553 268.785 159.903L266.525 182.492C266.257 185.163 263.897 187.339 261.263 187.339Z" fill="#004368"/>
<path d="M263.789 164.786C263.689 165.796 262.805 166.74 261.815 166.74H226.176C225.186 166.74 224.46 165.794 224.558 164.786L224.57 164.72C224.668 163.71 225.547 162.978 226.537 162.978H262.189C263.179 162.978 263.903 163.712 263.801 164.72L263.789 164.786Z" fill="white"/>
<path d="M262.746 175.191C262.646 176.199 261.762 177.091 260.772 177.091H225.167C224.177 177.091 223.453 176.199 223.548 175.191L223.561 175.332C223.659 174.324 224.536 173.799 225.526 173.799H261.144C262.134 173.799 262.856 174.324 262.756 175.332L262.746 175.191Z" fill="white"/>
<path d="M221.314 164.492C221.127 166.447 219.423 168.152 217.503 168.152H217.448C215.529 168.152 214.121 166.447 214.308 164.492L214.31 164.537C214.497 162.581 216.201 161.096 218.119 161.096H218.174C220.094 161.096 221.503 162.581 221.316 164.537L221.314 164.492Z" fill="white"/>
<path d="M346.266 155.45H296.67C294.378 155.45 292.324 157.419 292.086 159.756L289.777 182.316C289.539 184.642 291.2 186.497 293.486 186.497H342.939C345.225 186.497 347.281 184.678 347.532 182.352L349.964 159.72C350.215 157.387 348.558 155.45 346.266 155.45Z" fill="#E6ECF0"/>
<path d="M290.242 176.372C290.219 176.372 290.193 176.37 290.17 176.368C289.783 176.327 289.501 175.98 289.541 175.593L291.16 159.759C291.434 157.075 293.805 154.893 296.445 154.893H306.506C306.895 154.893 307.211 155.21 307.211 155.599C307.211 155.988 306.895 156.305 306.506 156.305H296.445C294.508 156.305 292.764 157.919 292.562 159.903L290.943 175.738C290.907 176.102 290.601 176.372 290.242 176.372Z" fill="#004368"/>
<path d="M342.714 187.339H325.223C324.834 187.339 324.518 187.022 324.518 186.633C324.518 186.244 324.834 185.927 325.223 185.927H342.714C344.647 185.927 346.393 184.321 346.606 182.345L349.036 159.756C349.138 158.81 348.872 157.928 348.286 157.277C347.725 156.652 346.927 156.307 346.041 156.307H334.933C334.544 156.307 334.228 155.99 334.228 155.601C334.228 155.212 334.544 154.895 334.933 154.895H346.041C347.334 154.895 348.505 155.405 349.336 156.333C350.192 157.287 350.582 158.557 350.438 159.907L348.008 182.496C347.721 185.165 345.346 187.339 342.714 187.339Z" fill="#004368"/>
<path d="M345.522 164.786C345.414 165.796 344.524 166.74 343.534 166.74H307.895C306.905 166.74 306.185 165.794 306.291 164.786L306.306 164.72C306.41 163.71 307.298 162.978 308.288 162.978H343.94C344.93 162.978 345.646 163.712 345.537 164.72L345.522 164.786Z" fill="white"/>
<path d="M344.401 175.191C344.293 176.199 343.402 177.091 342.413 177.091H306.81C305.82 177.091 305.102 176.199 305.206 175.191L305.221 175.332C305.325 174.324 306.211 173.799 307.2 173.799H342.818C343.808 173.799 344.524 174.324 344.416 175.332L344.401 175.191Z" fill="white"/>
<path d="M303.052 164.492C302.85 166.447 301.131 168.152 299.213 168.152H299.158C297.24 168.152 295.844 166.447 296.046 164.492L296.05 164.537C296.252 162.581 297.968 161.096 299.889 161.096H299.944C301.864 161.096 303.258 162.581 303.056 164.537L303.052 164.492Z" fill="white"/>
<path d="M260.218 199.199H210.824C208.54 199.199 206.512 201.158 206.291 203.476L204.171 225.975C203.952 228.283 205.622 230.246 207.899 230.246H257.15C259.428 230.246 261.46 228.321 261.692 226.016L263.933 203.503C264.165 201.185 262.501 199.199 260.218 199.199Z" fill="#E6ECF0"/>
<path d="M237.872 230.845H210.684C210.295 230.845 209.979 230.528 209.979 230.139C209.979 229.75 210.295 229.433 210.684 229.433H237.872C238.261 229.433 238.578 229.75 238.578 230.139C238.578 230.528 238.261 230.845 237.872 230.845Z" fill="#004368"/>
<path d="M210.684 230.845H207.676C206.386 230.845 205.214 230.337 204.377 229.416C203.523 228.476 203.121 227.226 203.247 225.897L204.135 216.516C204.171 216.129 204.521 215.842 204.904 215.88C205.29 215.916 205.575 216.261 205.539 216.65L204.651 226.031C204.564 226.96 204.836 227.823 205.42 228.468C205.987 229.093 206.788 229.435 207.676 229.435H210.684C211.073 229.435 211.389 229.752 211.389 230.141C211.387 230.528 211.073 230.845 210.684 230.845Z" fill="#004368"/>
<path d="M206.068 204.26C206.044 204.26 206.023 204.26 206 204.256C205.613 204.22 205.329 203.875 205.365 203.486C205.617 200.819 207.965 198.65 210.599 198.65H229.403C229.792 198.65 230.108 198.967 230.108 199.356C230.108 199.745 229.792 200.062 229.403 200.062H210.599C208.672 200.062 206.954 201.659 206.769 203.62C206.735 203.988 206.429 204.26 206.068 204.26Z" fill="#004368"/>
<path d="M262.482 216.529C262.459 216.529 262.435 216.529 262.412 216.525C262.026 216.486 261.743 216.14 261.781 215.753L263.009 203.484C263.103 202.548 262.833 201.679 262.249 201.032C261.683 200.407 260.883 200.062 259.995 200.062H256.031C255.642 200.062 255.326 199.745 255.326 199.356C255.326 198.967 255.642 198.65 256.031 198.65H259.995C261.286 198.65 262.457 199.159 263.294 200.084C264.148 201.03 264.547 202.287 264.411 203.624L263.183 215.893C263.147 216.259 262.839 216.529 262.482 216.529Z" fill="#004368"/>
<path d="M259.444 207.999C259.345 209.001 258.467 209.549 257.48 209.549H221.987C221.001 209.549 220.275 209.001 220.371 207.999L220.385 207.725C220.481 206.723 221.36 205.787 222.348 205.787H257.853C258.841 205.787 259.559 206.723 259.459 207.725L259.444 207.999Z" fill="white"/>
<path d="M258.406 218.596C258.306 219.595 257.424 220.367 256.439 220.367H220.976C219.99 220.367 219.272 219.595 219.368 218.596L219.381 218.43C219.476 217.431 220.351 216.605 221.337 216.605H256.812C257.798 216.605 258.518 217.431 258.418 218.43L258.406 218.596Z" fill="white"/>
<path d="M217.135 207.948C216.95 209.887 215.247 211.431 213.335 211.431H213.28C211.368 211.431 209.972 209.887 210.157 207.948L210.165 207.89C210.35 205.951 212.054 204.375 213.966 204.375H214.021C215.933 204.375 217.329 205.951 217.144 207.89L217.135 207.948Z" fill="white"/>
<path d="M329.433 201.313C340.554 204.443 354.867 216.495 354.867 238.359C354.867 254.108 331.693 267.451 331.693 267.451L327.872 258.058C327.872 258.058 340.645 248.588 340.033 237.534C339.543 228.67 325.265 225.916 325.265 225.916L329.433 201.313Z" fill="#004368"/>
<path d="M324.743 371.594H316.751V380.987H324.743V371.594Z" fill="#004368"/>
<path d="M301.321 370.133L293.542 371.97L295.698 381.113L303.476 379.275L301.321 370.133Z" fill="#004368"/>
<path d="M331.345 255.059C331.345 255.059 333.731 273.95 331.899 281.283C330.068 288.617 325.784 356.391 325.784 374.727H315.011L310.147 288.107L295.115 319.536C294.024 322.086 293.747 324.912 294.321 327.626L303.196 374.729L293.119 375.424L276.271 323.705C275.517 321.14 275.462 318.42 276.109 315.827L289.773 261.116L331.345 255.059Z" fill="black"/>
<path d="M310.669 286.899C310.514 286.899 310.359 286.848 310.23 286.744C309.926 286.501 309.877 286.057 310.119 285.753L315.678 278.794C315.921 278.49 316.365 278.441 316.668 278.684C316.972 278.926 317.021 279.371 316.779 279.675L311.22 286.633C311.081 286.808 310.878 286.899 310.669 286.899Z" fill="white"/>
<path d="M325.265 378.901H315.882L314.491 385.991C314.223 387.359 315.209 388.641 316.53 388.641H324.615C325.937 388.641 326.922 387.359 326.655 385.991L325.265 378.901Z" fill="white"/>
<path d="M324.615 389.347H316.53C315.715 389.347 314.943 388.977 314.414 388.333C313.849 387.646 313.624 386.742 313.801 385.855L315.192 378.765C315.256 378.433 315.547 378.195 315.884 378.195H325.267C325.605 378.195 325.894 378.433 325.96 378.765L327.351 385.855C327.526 386.742 327.3 387.646 326.737 388.333C326.202 388.977 325.431 389.347 324.615 389.347ZM316.462 379.605L315.183 386.125C315.09 386.597 315.207 387.074 315.504 387.435C315.77 387.759 316.135 387.935 316.532 387.935H324.617C325.015 387.935 325.38 387.759 325.646 387.435C325.941 387.074 326.058 386.597 325.966 386.125L324.688 379.605H316.462Z" fill="black"/>
<path d="M325.265 387.084H315.536C315.147 387.084 314.831 386.768 314.831 386.378C314.831 385.989 315.147 385.672 315.536 385.672H325.265C325.654 385.672 325.971 385.989 325.971 386.378C325.971 386.768 325.654 387.084 325.265 387.084Z" fill="black"/>
<path d="M303.721 376.813L306.289 385.349C306.735 386.833 305.832 388.405 304.503 388.45L286.852 389.047C285.76 389.083 285.325 387.391 286.247 386.697C289.119 384.537 292.94 381.536 293.99 380.111C296.422 376.813 298.854 379.699 298.854 379.699C298.854 379.699 300.592 376.813 303.721 376.813Z" fill="white"/>
<path d="M286.82 389.755C286.081 389.755 285.437 389.271 285.17 388.507C284.855 387.618 285.119 386.665 285.824 386.134C289.951 383.027 292.651 380.741 293.422 379.692C294.308 378.489 295.319 377.861 296.428 377.825C297.407 377.797 298.223 378.246 298.75 378.65C299.534 377.702 301.218 376.107 303.719 376.107C304.029 376.107 304.303 376.311 304.394 376.609L306.962 385.145C307.264 386.144 307.092 387.229 306.506 388.046C306.019 388.724 305.297 389.128 304.524 389.154L286.873 389.751C286.858 389.755 286.839 389.755 286.82 389.755ZM296.526 379.237C296.507 379.237 296.486 379.237 296.466 379.237C295.814 379.261 295.171 379.696 294.557 380.53C293.681 381.719 291.028 383.984 286.671 387.261C286.429 387.444 286.412 387.79 286.499 388.037C286.533 388.131 286.648 388.362 286.831 388.343L304.481 387.746C304.938 387.731 305.231 387.414 305.365 387.225C305.692 386.768 305.79 386.127 305.616 385.553L303.207 377.551C300.842 377.84 299.472 380.043 299.46 380.067C299.341 380.26 299.137 380.386 298.911 380.403C298.686 380.42 298.465 380.328 298.319 380.154C298.31 380.147 297.516 379.237 296.526 379.237Z" fill="black"/>
<path d="M288.779 387.084C288.403 387.084 288.09 386.789 288.076 386.41C288.059 386.021 288.36 385.691 288.749 385.674L304.734 384.979C305.142 384.958 305.452 385.264 305.469 385.653C305.486 386.042 305.184 386.372 304.796 386.389L288.811 387.084C288.798 387.084 288.787 387.084 288.779 387.084Z" fill="black"/>
<path d="M313.102 196.443L321.788 202.357L297.866 201.211L304.76 196.792L305.688 192.513C304.464 192.332 302.782 192.209 302.247 191.541C301.301 190.361 301.728 186.28 301.728 186.28L300.692 185.463C300.581 185.408 300.5 185.308 300.466 185.189C300.432 185.07 300.452 184.942 300.517 184.838C301.397 183.434 302.227 182.979 302.618 181.548C303.003 180.138 302.833 180.351 304.35 177.312L313.448 177.299L313.499 184.125C313.499 184.125 314.895 183.222 315.78 184.442C316.424 185.329 315.001 188.294 313.845 188.294L313.102 196.443Z" fill="white"/>
<path d="M321.79 203.061C321.779 203.061 321.767 203.061 321.756 203.061L297.835 201.915C297.529 201.9 297.265 201.689 297.187 201.392C297.108 201.094 297.229 200.781 297.488 200.615L304.135 196.354L304.84 193.106C303.574 192.934 302.302 192.732 301.699 191.979C300.758 190.805 300.893 187.802 300.993 186.594L300.301 186.05C300.052 185.899 299.867 185.659 299.791 185.376C299.704 185.07 299.753 184.736 299.925 184.461C300.273 183.904 300.613 183.49 300.913 183.124C301.391 182.541 301.735 182.118 301.941 181.361C301.992 181.174 302.032 181.016 302.068 180.874C302.327 179.876 302.417 179.606 303.721 176.995C303.84 176.757 304.084 176.606 304.35 176.604L313.448 176.591C313.835 176.591 314.151 176.903 314.153 177.29L314.198 183.128C314.926 183.02 315.755 183.203 316.352 184.026C317.053 184.995 316.324 186.611 316.084 187.084C315.85 187.541 315.294 188.481 314.504 188.847L313.841 196.092L322.185 201.772C322.446 201.951 322.557 202.278 322.457 202.58C322.361 202.867 322.092 203.061 321.79 203.061ZM300.11 200.611L319.324 201.532L312.704 197.026C312.492 196.881 312.375 196.634 312.399 196.377L313.142 188.228C313.176 187.864 313.48 187.585 313.843 187.585C313.941 187.579 314.338 187.328 314.754 186.575C315.213 185.742 315.292 185.008 315.205 184.849C314.729 184.191 313.966 184.659 313.881 184.715C313.665 184.855 313.391 184.866 313.163 184.742C312.936 184.621 312.796 184.385 312.794 184.125L312.747 178.001L304.785 178.011C303.695 180.206 303.642 180.41 303.43 181.225C303.392 181.369 303.349 181.533 303.296 181.729C303.011 182.777 302.519 183.379 301.998 184.015C301.754 184.313 301.503 184.619 301.248 185L302.162 185.718C302.353 185.869 302.453 186.105 302.427 186.348C302.262 187.924 302.268 190.437 302.795 191.094C303.075 191.443 304.413 191.624 305.214 191.73C305.412 191.758 305.607 191.783 305.79 191.811C305.983 191.839 306.155 191.947 306.266 192.109C306.376 192.268 306.417 192.468 306.374 192.66L305.446 196.938C305.405 197.121 305.295 197.281 305.138 197.383L300.11 200.611Z" fill="black"/>
<path d="M314.291 191.345C312.458 191.956 310.65 190.52 310.325 190.263C309.051 189.251 308.01 187.449 308.522 186.654C308.802 186.218 309.306 186.456 309.964 185.933C310.933 185.163 311.209 183.494 310.684 183.045C310.255 182.677 309.584 183.381 308.881 183.045C308.025 182.635 308.462 181.318 307.799 180.157C306.716 178.262 304.19 179.407 302.249 177.388C300.981 176.072 300.43 173.877 301.155 172.637C301.367 172.274 301.69 171.955 302.151 171.7C305.206 170.015 305.662 172.321 308.636 172.346C314.757 172.399 317.758 173.624 318.867 176.163C319.619 177.886 318.701 180.631 318.255 181.961C318.107 182.405 317.796 183.243 317.535 184.487C317.248 185.85 317.338 186.201 317.174 187.013C317.061 187.583 316.454 190.624 314.291 191.345Z" fill="black"/>
<path d="M288.779 199.92C288.779 199.92 309.628 194.006 329.435 201.311C330.958 210.102 332.006 217.694 332.736 223.704C334.022 234.288 333.221 230.907 334.82 246.359C335.814 255.961 336.08 256.841 335.169 258.534C330.574 267.064 312.054 266.6 304.938 264.795C304.432 264.667 302.344 264.114 298.924 263.251C295.009 262.262 291.795 261.482 289.647 260.967C288.485 260.439 286.918 259.506 285.826 257.837C283.377 254.094 285.014 249.245 285.826 246.008C287.91 237.695 285.172 237.517 285.826 222.354C286.053 217.056 286.72 209.356 288.779 199.92Z" fill="#004368"/>
<path d="M242.295 192.643L239.888 182.224L233.18 176.266C233.18 176.266 229.365 176.329 235.612 182.875C235.612 182.875 232.626 188.725 234.557 191.048C235.117 191.724 238.333 195.907 238.333 195.907L242.295 192.643Z" fill="white"/>
<path d="M238.333 196.613C238.306 196.613 238.28 196.611 238.255 196.609C238.066 196.588 237.892 196.49 237.775 196.339C237.743 196.296 234.561 192.158 234.015 191.501C232.116 189.217 234.042 184.551 234.765 183.007C231.958 180 230.909 177.975 231.461 176.65C231.812 175.808 232.7 175.57 233.167 175.562C233.348 175.555 233.516 175.623 233.647 175.74L240.356 181.699C240.464 181.797 240.541 181.924 240.575 182.067L242.981 192.485C243.041 192.747 242.949 193.019 242.741 193.189L238.78 196.454C238.654 196.558 238.497 196.613 238.333 196.613ZM232.97 177.023C232.885 177.057 232.798 177.11 232.761 177.197C232.713 177.318 232.398 178.486 236.122 182.388C236.328 182.605 236.377 182.928 236.241 183.196C235.521 184.608 233.768 188.998 235.098 190.597C235.54 191.128 237.541 193.723 238.448 194.899L241.509 192.375L239.251 182.603L232.97 177.023Z" fill="black"/>
<path d="M235.961 195.399L243.258 190.529C243.258 190.529 250.903 207.574 262.716 209.313C274.531 211.053 280.09 199.573 295.379 198.529L295.727 219.749C295.727 219.749 280.785 232.968 267.581 232.272C254.378 231.577 240.477 208.618 235.961 195.399Z" fill="#004368"/>
<path d="M326.916 265.044C326.572 265.044 326.272 264.791 326.219 264.44C326.162 264.055 326.429 263.695 326.814 263.638C327.192 263.583 336.052 262.171 334.88 253.764C334.827 253.379 335.094 253.022 335.481 252.969C335.863 252.913 336.222 253.183 336.275 253.57C337.643 263.374 327.124 265.02 327.018 265.035C326.984 265.039 326.95 265.044 326.916 265.044Z" fill="white"/>
<path d="M302.769 256.926C302.591 256.926 302.412 256.858 302.274 256.724C293.964 248.524 292.25 236.113 292.18 235.588C292.129 235.201 292.401 234.848 292.787 234.797C293.174 234.746 293.526 235.018 293.577 235.405C293.594 235.528 295.304 247.865 303.262 255.72C303.538 255.995 303.542 256.441 303.268 256.718C303.132 256.856 302.952 256.926 302.769 256.926Z" fill="white"/>
<path d="M145.657 366.407C131.106 352.98 138.639 344.32 138.639 344.32C138.639 344.32 145.139 333.778 167.95 347.559C190.76 361.342 212.84 356.216 217.832 354.151C222.826 352.087 240.273 339.099 250.104 338.37C255.574 337.964 262.123 342.083 256.379 353.214C244.5 376.232 212.239 378.859 212.239 378.859C212.239 378.859 196.6 381.8 180.534 378.95C180.534 378.948 160.209 379.835 145.657 366.407Z" fill="#004368"/>
<path d="M195.544 380.887C190.907 380.887 185.709 380.577 180.483 379.656C179.049 379.692 159.31 379.967 145.18 366.926C130.879 353.73 137.456 344.677 138.063 343.91C138.605 343.074 145.643 333.26 168.313 346.955C194.04 362.498 217.335 353.594 217.562 353.499C219.019 352.895 221.722 351.24 224.851 349.322C232.519 344.622 243.02 338.187 250.051 337.666C252.691 337.472 256.188 338.278 258.072 341.134C259.438 343.201 260.36 347.032 257.004 353.537C250.763 365.629 238.928 372.062 230.098 375.328C220.895 378.733 212.944 379.503 212.332 379.556C211.765 379.658 204.763 380.887 195.544 380.887ZM180.534 378.242C180.574 378.242 180.617 378.246 180.657 378.253C196.404 381.045 211.952 378.191 212.109 378.161C212.133 378.157 212.158 378.153 212.181 378.15C212.5 378.125 244.194 375.284 255.752 352.886C258.161 348.218 258.557 344.424 256.897 341.908C255.349 339.563 252.4 338.904 250.157 339.069C243.468 339.565 233.133 345.898 225.59 350.521C222.278 352.55 219.665 354.154 218.104 354.798C215.47 355.887 208.593 357.673 199.561 357.499C188.22 357.267 177.462 354.126 167.589 348.159C156.096 341.215 148.973 340.669 145.02 341.432C140.831 342.24 139.304 344.59 139.24 344.69C139.221 344.72 139.198 344.752 139.174 344.779C138.89 345.111 132.313 353.126 146.14 365.886C160.313 378.965 180.307 378.25 180.508 378.242C180.513 378.242 180.523 378.242 180.534 378.242Z" fill="black"/>
<path d="M183.557 368.364L192.698 373.74L185.998 377.393L181.732 374.661L183.557 368.364Z" fill="white"/>
<path d="M185.998 378.099C185.866 378.099 185.732 378.063 185.617 377.989L181.352 375.256C181.088 375.088 180.967 374.765 181.054 374.465L182.879 368.17C182.941 367.962 183.094 367.792 183.295 367.711C183.497 367.63 183.725 367.647 183.914 367.758L193.052 373.134C193.271 373.261 193.405 373.499 193.401 373.753C193.396 374.006 193.256 374.24 193.033 374.361L186.333 378.014C186.229 378.07 186.112 378.099 185.998 378.099ZM182.556 374.35L186.027 376.575L191.268 373.716L183.984 369.433L182.556 374.35Z" fill="black"/>
<path d="M186.029 374.975L187.395 373.591C187.886 373.093 188.655 372.998 189.254 373.361L190.225 373.95L190.735 373.195C190.96 372.706 191.542 372.4 192.028 372.634C197.821 375.42 205.195 377.549 208.657 380.115C212.753 383.152 209.845 389.911 202.701 389.222C197.039 388.675 189.305 382.357 186.337 379.756C185.755 379.246 185.902 378.301 186.611 377.991L186.618 377.987L185.862 376.898C185.447 376.305 185.517 375.494 186.029 374.975Z" fill="white"/>
<path d="M203.731 389.981C203.378 389.981 203.011 389.964 202.633 389.926C196.789 389.362 188.965 382.999 185.872 380.29C185.415 379.89 185.199 379.295 185.292 378.697C185.341 378.38 185.471 378.093 185.664 377.853L185.284 377.304C184.674 376.428 184.776 375.239 185.528 374.478L186.894 373.093C187.618 372.36 188.738 372.221 189.619 372.755L190.019 372.998L190.125 372.84C190.335 372.426 190.699 372.1 191.13 371.945C191.533 371.798 191.962 371.817 192.334 371.998C194.584 373.081 197.086 374.067 199.506 375.02C203.308 376.519 206.898 377.933 209.076 379.55C211.03 380.998 211.731 383.393 210.866 385.649C210.07 387.724 207.746 389.981 203.731 389.981ZM188.468 373.848C188.258 373.848 188.052 373.931 187.894 374.089L186.529 375.473C186.255 375.749 186.218 376.181 186.439 376.5L187.196 377.589C187.319 377.765 187.355 377.991 187.291 378.197C187.227 378.403 187.072 378.569 186.873 378.648C186.733 378.71 186.694 378.852 186.686 378.91C186.675 378.98 186.675 379.116 186.803 379.226C189.794 381.846 197.335 387.995 202.769 388.52C206.673 388.898 208.863 386.936 209.549 385.143C210.191 383.469 209.687 381.759 208.237 380.683C206.208 379.18 202.701 377.797 198.99 376.334C196.547 375.371 194.021 374.376 191.722 373.272C191.712 373.266 191.676 373.249 191.603 373.276C191.508 373.31 191.419 373.395 191.374 373.493C191.357 373.527 191.338 373.561 191.317 373.593L190.807 374.346C190.597 374.656 190.178 374.748 189.857 374.552L188.887 373.963C188.757 373.887 188.612 373.848 188.468 373.848Z" fill="black"/>
<path d="M201.885 387.58C201.127 387.58 200.3 387.467 199.414 387.212C199.041 387.106 198.824 386.714 198.932 386.34C199.041 385.966 199.431 385.749 199.803 385.857C203.032 386.785 205.201 385.457 206.076 384.039C206.733 382.974 206.728 381.817 206.063 381.094C205.8 380.807 205.819 380.36 206.104 380.096C206.391 379.833 206.837 379.852 207.1 380.137C208.205 381.338 208.273 383.161 207.274 384.779C206.393 386.208 204.54 387.58 201.885 387.58Z" fill="black"/>
<path d="M198.397 384.375C198.259 384.375 198.119 384.335 197.995 384.25C197.675 384.028 197.596 383.588 197.817 383.267L201.193 378.386C201.413 378.065 201.853 377.985 202.174 378.208C202.495 378.429 202.573 378.869 202.352 379.19L198.977 384.071C198.839 384.269 198.62 384.375 198.397 384.375Z" fill="black"/>
<path d="M194.913 383.065C194.811 383.065 194.709 383.044 194.611 382.997C194.259 382.829 194.11 382.408 194.278 382.057L196.591 377.187C196.759 376.836 197.18 376.685 197.53 376.853C197.881 377.021 198.032 377.442 197.864 377.793L195.55 382.663C195.429 382.916 195.177 383.065 194.913 383.065Z" fill="black"/>
<path d="M205.634 369.433C205.439 369.433 205.246 369.353 205.105 369.195L204.349 368.336C204.224 368.194 204.162 368.009 204.175 367.819C204.188 367.63 204.277 367.456 204.419 367.332L208.228 364.07C214.097 359.041 220.528 354.641 227.338 350.991L230.081 349.522C230.425 349.337 230.85 349.467 231.034 349.811C231.219 350.156 231.09 350.583 230.745 350.766L228.003 352.235C221.28 355.838 214.934 360.18 209.144 365.142L205.879 367.938L206.161 368.26C206.418 368.551 206.391 368.997 206.1 369.255C205.966 369.376 205.798 369.433 205.634 369.433Z" fill="black"/>
<path d="M206.463 370.229L192.135 376.188L195.438 380.887L211.415 376.188L206.463 370.229Z" fill="white"/>
<path d="M195.44 381.593C195.215 381.593 194.998 381.485 194.864 381.294L191.559 376.592C191.436 376.417 191.4 376.194 191.459 375.99C191.519 375.784 191.669 375.616 191.865 375.535L206.193 369.578C206.478 369.459 206.807 369.54 207.005 369.778L211.956 375.735C212.107 375.917 212.158 376.164 212.088 376.392C212.02 376.619 211.839 376.796 211.612 376.864L195.638 381.566C195.572 381.585 195.506 381.593 195.44 381.593ZM193.216 376.5L195.725 380.069L210.185 375.813L206.253 371.082L193.216 376.5Z" fill="black"/>
<path d="M198.015 377.306L196.895 375.715C196.491 375.143 195.75 374.922 195.1 375.182L193.447 375.911L193.316 375.43C193.173 374.909 192.666 374.58 192.132 374.663C188.887 375.177 178.688 376.685 174.849 378.648C170.31 380.968 172.066 388.114 179.225 388.611C184.897 389.005 192.755 384.792 196.018 382.576C197.09 381.849 196.338 380.49 196.338 380.49L197.859 379.235C198.369 378.712 198.435 377.902 198.015 377.306Z" fill="white"/>
<path d="M179.984 389.343C179.712 389.343 179.442 389.334 179.179 389.315C174.478 388.988 172.245 386.108 171.763 383.741C171.281 381.372 172.366 379.127 174.531 378.021C178.231 376.128 187.425 374.688 191.349 374.074L192.022 373.967C192.804 373.844 193.556 374.254 193.885 374.948L194.815 374.537C195.795 374.146 196.878 374.467 197.471 375.309L198.59 376.9C199.206 377.772 199.111 378.963 198.367 379.728C198.35 379.748 198.331 379.765 198.31 379.779L197.186 380.707C197.405 381.451 197.399 382.493 196.415 383.161C193.169 385.364 185.749 389.343 179.984 389.343ZM192.298 375.356C192.279 375.356 192.262 375.358 192.243 375.36L191.567 375.467C188.041 376.02 178.673 377.487 175.172 379.275C173.562 380.098 172.785 381.702 173.144 383.456C173.528 385.338 175.363 387.633 179.276 387.905C184.351 388.248 191.835 384.562 195.625 381.991C196.139 381.642 195.767 380.909 195.722 380.826C195.563 380.53 195.635 380.158 195.892 379.943L197.379 378.716C197.63 378.437 197.656 378.021 197.439 377.71L196.319 376.119C196.103 375.813 195.712 375.694 195.361 375.835L193.732 376.553C193.545 376.636 193.331 376.632 193.146 376.545C192.961 376.458 192.823 376.292 192.77 376.094L192.638 375.613C192.593 375.46 192.453 375.356 192.298 375.356Z" fill="black"/>
<path d="M188.037 383.828C187.731 383.828 187.448 383.626 187.359 383.316L185.879 378.131C185.772 377.757 185.989 377.366 186.363 377.259C186.737 377.151 187.128 377.37 187.234 377.744L188.714 382.929C188.821 383.303 188.604 383.695 188.23 383.801C188.166 383.82 188.101 383.828 188.037 383.828Z" fill="black"/>
<path d="M179.368 387.191C179.291 387.191 179.215 387.178 179.14 387.152C176.604 386.283 175.128 385.045 174.752 383.473C174.248 381.377 175.948 379.594 176.02 379.518C176.292 379.237 176.738 379.231 177.016 379.503C177.294 379.773 177.303 380.22 177.033 380.5C177.012 380.522 175.799 381.819 176.124 383.152C176.381 384.205 177.581 385.128 179.597 385.819C179.965 385.945 180.162 386.346 180.035 386.714C179.933 387.006 179.661 387.191 179.368 387.191Z" fill="black"/>
<path d="M183.901 367.698C183.854 367.698 183.807 367.694 183.761 367.685C183.378 367.609 183.132 367.237 183.208 366.854L183.389 365.958C180.761 364.045 164.43 352.367 155.297 351.013C154.913 350.955 154.647 350.596 154.703 350.211C154.76 349.826 155.121 349.556 155.504 349.615C165.755 351.136 183.824 364.519 184.589 365.089C184.808 365.252 184.914 365.527 184.859 365.795L184.589 367.132C184.523 367.466 184.23 367.698 183.901 367.698Z" fill="black"/>
<path d="M231.578 333.232C230.83 329.88 226.367 319.709 222.767 310.605C219.893 303.338 212.009 296.85 203.739 295.795C197.583 295.01 190.909 294.853 184.491 295.359C173.791 296.203 164.6 301.822 161.061 311.223C157.872 319.689 154.399 330.084 154.32 335.35C154.237 340.96 157.621 346.319 161.316 350.481C165.976 355.732 172.625 359.004 179.805 359.672C190.063 360.623 206.068 361.576 213.339 359.198C224.487 355.551 233.388 341.345 231.578 333.232Z" fill="black"/>
<path d="M220.424 321.276H176.472C174.478 321.276 172.861 322.894 172.861 324.891V353.983C172.861 355.98 174.478 357.599 176.472 357.599H220.424C222.418 357.599 224.035 355.98 224.035 353.983V324.891C224.035 322.894 222.416 321.276 220.424 321.276Z" fill="#B0C5D0"/>
<path d="M220.424 358.303H176.472C174.093 358.303 172.156 356.363 172.156 353.981V324.889C172.156 322.507 174.091 320.568 176.472 320.568H220.424C222.803 320.568 224.74 322.507 224.74 324.889V353.981C224.738 356.365 222.803 358.303 220.424 358.303ZM176.472 321.982C174.871 321.982 173.566 323.288 173.566 324.891V353.983C173.566 355.589 174.871 356.893 176.472 356.893H220.424C222.025 356.893 223.33 355.587 223.33 353.983V324.891C223.33 323.286 222.025 321.982 220.424 321.982H176.472Z" fill="black"/>
<path d="M223.334 357.773H172.812C171.557 357.773 170.539 358.792 170.539 360.049C170.539 361.305 171.557 362.324 172.812 362.324H223.336C224.591 362.324 225.609 361.305 225.609 360.049C225.607 358.792 224.589 357.773 223.334 357.773Z" fill="#B0C5D0"/>
<path d="M223.334 363.03H172.812C171.17 363.03 169.834 361.692 169.834 360.049C169.834 358.405 171.17 357.067 172.812 357.067H223.336C224.978 357.067 226.314 358.405 226.314 360.049C226.312 361.692 224.976 363.03 223.334 363.03ZM172.812 358.479C171.948 358.479 171.244 359.183 171.244 360.049C171.244 360.914 171.948 361.618 172.812 361.618H223.336C224.201 361.618 224.904 360.914 224.904 360.049C224.904 359.183 224.201 358.479 223.336 358.479H172.812Z" fill="black"/>
<path d="M200.353 337.885C200.353 339.34 199.174 340.52 197.721 340.52C196.268 340.52 195.089 339.34 195.089 337.885C195.089 336.43 196.268 335.25 197.721 335.25C199.177 335.248 200.353 336.428 200.353 337.885Z" fill="white"/>
<path d="M197.877 292.532C200.436 292.79 202.722 290.92 202.979 288.356L203.684 281.323C203.926 278.901 202.176 276.734 199.761 276.466L198.9 276.37C197.473 276.211 196.058 276.751 195.096 277.816L193.297 279.809C193.029 280.107 192.596 280.194 192.239 280.013C191.759 279.773 191.062 279.541 190.516 279.83C189.588 280.323 188.519 284.037 191.918 285.015L189.868 292.294C189.348 294.14 188.075 295.682 186.361 296.537C185.122 297.154 183.907 297.864 183.854 298.293C183.563 300.624 190.459 301.475 192.421 301.522C196.06 301.607 201.163 300.148 201.547 298.07C201.721 297.124 197.241 296.667 197.43 295.722C197.828 293.742 197.877 292.532 197.877 292.532Z" fill="white"/>
<path d="M192.725 302.232C192.617 302.232 192.511 302.23 192.406 302.228C191.07 302.196 185.311 301.654 183.65 299.727C183.259 299.272 183.087 298.746 183.155 298.206C183.225 297.641 183.733 297.06 186.046 295.905C187.578 295.142 188.725 293.755 189.19 292.103L191.064 285.455C189.394 284.713 188.995 283.343 188.91 282.539C188.768 281.178 189.352 279.654 190.187 279.209C190.826 278.869 191.646 278.928 192.555 279.384C192.627 279.42 192.717 279.401 192.776 279.337L194.575 277.342C195.686 276.111 197.335 275.488 198.981 275.666L199.841 275.762C202.631 276.072 204.67 278.597 204.39 281.391L203.684 288.424C203.415 291.129 201.171 293.166 198.529 293.255C198.476 293.785 198.369 294.6 198.168 295.637C198.476 295.824 199.23 296.069 199.706 296.226C201.114 296.686 202.442 297.12 202.242 298.2C201.768 300.752 196.489 302.232 192.725 302.232ZM184.551 298.466C184.557 298.551 184.593 298.661 184.719 298.806C185.774 300.033 190.306 300.769 192.438 300.818C196.005 300.916 200.175 299.538 200.791 298.147C200.47 297.962 199.735 297.721 199.268 297.568C197.855 297.107 196.521 296.673 196.74 295.584C197.12 293.691 197.173 292.513 197.173 292.501L197.205 291.754L197.949 291.829C200.122 292.045 202.061 290.457 202.28 288.283L202.985 281.251C203.189 279.222 201.709 277.391 199.684 277.165L198.824 277.07C197.626 276.934 196.428 277.391 195.621 278.288L193.821 280.283C193.341 280.815 192.562 280.966 191.924 280.647C191.461 280.415 191.06 280.345 190.847 280.455C190.658 280.577 190.176 281.47 190.325 282.493C190.459 283.413 191.06 284.034 192.113 284.339L192.787 284.532L190.546 292.488C189.972 294.523 188.562 296.229 186.673 297.171C185.114 297.949 184.668 298.338 184.551 298.466Z" fill="black"/>
<path d="M198.255 293.255C198.227 293.255 198.199 293.253 198.172 293.251C197.541 293.177 194.35 292.69 193.566 290.321C193.445 289.951 193.645 289.551 194.015 289.43C194.384 289.306 194.784 289.508 194.905 289.878C195.438 291.495 198.214 291.835 198.333 291.85C198.72 291.894 198.998 292.245 198.951 292.632C198.913 292.99 198.607 293.255 198.255 293.255Z" fill="black"/>
<path d="M189.836 279.934L188.925 274.39C188.887 271.947 190.535 269.801 192.904 269.214L199.763 267.513C200.458 267.34 201.127 267.876 201.11 268.593C201.093 269.31 201.764 269.848 202.459 269.673L205.583 268.893C206.505 268.663 207.257 269.644 206.798 270.475L206.635 270.771C206.293 271.392 206.626 272.17 207.313 272.349L209.76 273.027C210.595 273.244 210.854 274.301 210.219 274.884L203.884 280.217C203.884 280.217 202.869 275.602 198.312 276.287C196.005 276.634 194.376 278.401 193.675 279.675C193.405 280.166 192.878 281.042 192.037 280.266C192.033 280.268 192.585 278.382 189.836 279.934Z" fill="black"/>
<path d="M60.4973 117.5C86.4076 117.5 107.412 96.3528 107.412 70.2659C107.412 44.179 86.4076 23.0314 60.4973 23.0314C34.5871 23.0314 13.5826 44.179 13.5826 70.2659C13.5826 96.3528 34.5871 117.5 60.4973 117.5Z" fill="#004368"/>
<path d="M60.4017 118.219C50.9572 118.219 41.7314 115.384 33.7484 109.927C23.1865 102.708 16.0659 91.7746 13.7016 79.1445C8.83912 53.1678 25.8737 28.0502 51.6752 23.1547C64.1277 20.7899 76.7608 23.4375 87.2441 30.6043C97.806 37.8242 104.927 48.7572 107.291 61.3872C112.153 87.3639 95.1188 112.482 69.3173 117.377C66.3455 117.941 63.363 118.219 60.4017 118.219ZM60.5908 23.7225C57.7166 23.7225 54.8234 23.9926 51.9407 24.5413C26.8997 29.2921 10.3686 53.6718 15.0887 78.8851C17.383 91.1451 24.2932 101.755 34.545 108.764C44.7161 115.718 56.9731 118.283 69.056 115.993C94.0949 111.242 110.628 86.8621 105.908 61.6488C103.614 49.3888 96.7035 38.779 86.4518 31.7697C78.7066 26.4744 69.7549 23.7225 60.5908 23.7225Z" fill="black"/>
<path d="M60.4973 110.546C82.5923 110.546 100.504 92.5121 100.504 70.2659C100.504 48.0196 82.5923 29.9854 60.4973 29.9854C38.4023 29.9854 20.4908 48.0196 20.4908 70.2659C20.4908 92.5121 38.4023 110.546 60.4973 110.546Z" fill="white"/>
<path d="M60.4166 111.263C52.3422 111.263 44.4548 108.839 37.6295 104.175C28.5991 98.0013 22.5131 88.6548 20.4908 77.8579C16.3336 55.6496 30.8976 34.177 52.9561 29.9918C63.603 27.9715 74.4028 30.2321 83.3652 36.3589C92.3955 42.5325 98.4815 51.8791 100.504 62.6759C104.661 84.8843 90.097 106.357 68.0385 110.542C65.4979 111.025 62.9466 111.263 60.4166 111.263ZM60.5759 30.6787C58.133 30.6787 55.671 30.9084 53.2174 31.3741C31.9215 35.4147 17.8609 56.1493 21.8758 77.5942C23.828 88.0211 29.7038 97.0465 38.4239 103.005C47.0761 108.919 57.5 111.101 67.7751 109.153C89.071 105.113 103.132 84.3782 99.1167 62.9333C97.1645 52.5064 91.2887 43.481 82.5686 37.5222C75.9854 33.0201 68.3699 30.6787 60.5759 30.6787Z" fill="black"/>
<path d="M76.9116 89.5969C76.7162 89.5969 76.5229 89.5161 76.3827 89.3587L59.9684 70.7316C59.8494 70.5976 59.7878 70.4232 59.792 70.2425L60.3677 51.2453C60.3805 50.8562 60.7055 50.5329 61.0942 50.5606C61.483 50.5712 61.7889 50.8987 61.7782 51.2879L61.2111 70.0064L77.4406 88.423C77.6976 88.7144 77.67 89.161 77.379 89.4183C77.243 89.5395 77.0773 89.5969 76.9116 89.5969Z" fill="black"/>
<path d="M56.9052 38.3664C57.1665 39.7615 56.2551 41.1077 54.868 41.3714C53.4808 41.6351 52.1468 40.7164 51.8855 39.3213C51.6242 37.9262 52.5355 36.5801 53.9227 36.3185C55.3077 36.0505 56.6439 36.9692 56.9052 38.3664Z" fill="#E6ECF0"/>
<path d="M41.5445 44.4486C42.4643 45.5268 42.3411 47.1494 41.2726 48.0745C40.202 48.9995 38.5897 48.8783 37.6698 47.8001C36.75 46.7219 36.8732 45.0993 37.9418 44.1721C39.0124 43.247 40.6268 43.3704 41.5445 44.4486Z" fill="#E6ECF0"/>
<path d="M31.263 57.4486C32.5949 57.9186 33.2959 59.386 32.8286 60.7279C32.3613 62.0677 30.904 62.7737 29.5721 62.3037C28.2402 61.8337 27.5392 60.3664 28.0065 59.0266C28.4738 57.6826 29.9332 56.9787 31.263 57.4486Z" fill="#E6ECF0"/>
<path d="M28.8158 73.8811C30.203 73.6174 31.537 74.5361 31.7983 75.9311C32.0596 77.3262 31.1483 78.6724 29.7611 78.9361C28.374 79.1998 27.0399 78.2811 26.7787 76.886C26.5174 75.4909 27.4287 74.1448 28.8158 73.8811Z" fill="#E6ECF0"/>
<path d="M34.8552 89.3481C35.9258 88.423 37.5381 88.5442 38.4579 89.6224C39.3778 90.7006 39.2546 92.3232 38.186 93.2483C37.1154 94.1734 35.5031 94.0522 34.5833 92.974C33.6635 91.8958 33.7867 90.2731 34.8552 89.3481Z" fill="#E6ECF0"/>
<path d="M47.7665 99.6983C48.2339 98.3586 49.6911 97.6525 51.023 98.1225C52.355 98.5925 53.056 100.06 52.5886 101.402C52.1213 102.742 50.664 103.448 49.3321 102.978C48.0002 102.508 47.3013 101.04 47.7665 99.6983Z" fill="#E6ECF0"/>
<path d="M64.0895 102.165C63.8282 100.77 64.7395 99.424 66.1267 99.1624C67.5138 98.8987 68.8479 99.8174 69.1091 101.213C69.3704 102.608 68.4591 103.954 67.072 104.217C65.6869 104.479 64.3508 103.56 64.0895 102.165Z" fill="#E6ECF0"/>
<path d="M79.4501 96.0831C78.5303 95.0049 78.6535 93.3823 79.7221 92.4572C80.7927 91.5321 82.405 91.6533 83.3248 92.7315C84.2446 93.8097 84.1214 95.4323 83.0529 96.3574C81.9823 97.2825 80.37 97.1592 79.4501 96.0831Z" fill="#E6ECF0"/>
<path d="M89.7317 83.083C88.3997 82.613 87.6987 81.1457 88.1661 79.8038C88.6334 78.464 90.0907 77.7579 91.4226 78.2279C92.7545 78.6979 93.4555 80.1653 92.9882 81.5072C92.5208 82.847 91.0636 83.553 89.7317 83.083Z" fill="#E6ECF0"/>
<path d="M92.1809 66.6485C90.7938 66.9122 89.4597 65.9935 89.1984 64.5963C88.9371 63.2012 89.8485 61.8551 91.2356 61.5935C92.6228 61.3298 93.9568 62.2485 94.2181 63.6435C94.4773 65.0407 93.566 66.3848 92.1809 66.6485Z" fill="#E6ECF0"/>
<path d="M86.1395 51.1836C85.0688 52.1087 83.4565 51.9875 82.5367 50.9093C81.6169 49.8311 81.7401 48.2084 82.8086 47.2834C83.8792 46.3583 85.4916 46.4795 86.4114 47.5577C87.3312 48.6338 87.2101 50.2564 86.1395 51.1836Z" fill="#E6ECF0"/>
<path d="M73.2281 40.8312C72.7608 42.1709 71.3035 42.877 69.9716 42.407C68.6397 41.937 67.9387 40.4696 68.406 39.1299C68.8733 37.7901 70.3306 37.084 71.6625 37.554C72.9944 38.0219 73.6955 39.4914 73.2281 40.8312Z" fill="#E6ECF0"/>
<path d="M119.327 14.8396C119.225 14.8396 119.121 14.8162 119.021 14.7694C118.671 14.6014 118.522 14.1782 118.692 13.8273L120.272 10.5395C120.442 10.1886 120.863 10.0419 121.213 10.2099C121.564 10.3779 121.713 10.8011 121.543 11.152L119.962 14.4398C119.841 14.6928 119.59 14.8396 119.327 14.8396Z" fill="black"/>
<path d="M115.646 22.4997C115.544 22.4997 115.44 22.4763 115.34 22.4295C114.989 22.2615 114.841 21.8383 115.011 21.4874L116.591 18.1996C116.761 17.8487 117.182 17.702 117.532 17.87C117.883 18.038 118.031 18.4612 117.861 18.8121L116.281 22.0999C116.16 22.3529 115.907 22.4997 115.646 22.4997Z" fill="black"/>
<path d="M116.094 15.9731C115.992 15.9731 115.888 15.9497 115.788 15.9029L112.504 14.3207C112.153 14.1527 112.005 13.7295 112.175 13.3786C112.342 13.0277 112.765 12.881 113.116 13.049L116.4 14.6312C116.75 14.7992 116.899 15.2224 116.729 15.5733C116.608 15.8263 116.355 15.9731 116.094 15.9731Z" fill="black"/>
<path d="M123.746 19.6606C123.644 19.6606 123.54 19.6372 123.44 19.5905L120.156 18.0082C119.805 17.8402 119.656 17.417 119.826 17.0661C119.996 16.7153 120.417 16.5685 120.767 16.7365L124.051 18.3187C124.402 18.4889 124.551 18.9099 124.381 19.2608C124.26 19.5139 124.007 19.6606 123.746 19.6606Z" fill="black"/>
<path d="M105.4 34.496C104.844 34.496 104.291 34.3705 103.775 34.1217C101.91 33.2221 101.122 30.9721 102.021 29.105C102.456 28.199 103.217 27.5185 104.162 27.1868C105.109 26.855 106.127 26.9124 107.032 27.3484C107.935 27.7843 108.616 28.5457 108.948 29.4941C109.279 30.4426 109.222 31.4613 108.786 32.3672C108.351 33.2732 107.59 33.9537 106.643 34.2854C106.237 34.4237 105.819 34.496 105.4 34.496ZM105.405 28.384C105.143 28.384 104.882 28.4287 104.627 28.518C104.037 28.7243 103.561 29.1496 103.289 29.7153C102.728 30.8807 103.221 32.2885 104.385 32.85C104.95 33.1222 105.587 33.1583 106.178 32.9499C106.768 32.7436 107.244 32.3183 107.516 31.7526C107.788 31.1869 107.824 30.5511 107.616 29.9577C107.408 29.3665 106.983 28.8902 106.42 28.618C106.097 28.4627 105.753 28.384 105.405 28.384Z" fill="black"/>
<path d="M368.743 65.2598C368.526 65.2598 368.314 65.1598 368.176 64.9727C350.548 41.0035 326.655 22.7038 299.075 12.0494C298.712 11.9091 298.531 11.5008 298.671 11.1371C298.812 10.7735 299.22 10.5927 299.583 10.7331C327.413 21.4832 351.524 39.9508 369.31 64.1369C369.542 64.4516 369.474 64.8919 369.161 65.1237C369.034 65.2151 368.887 65.2598 368.743 65.2598Z" fill="black"/>
<path d="M355.738 60.243C355.54 60.243 355.343 60.1601 355.205 59.9985C341.792 44.4209 325.739 31.844 307.489 22.6145C307.141 22.438 307.003 22.0148 307.179 21.666C307.353 21.3172 307.778 21.179 308.127 21.3555C326.542 30.668 342.74 43.3597 356.273 59.0776C356.528 59.3732 356.494 59.8177 356.199 60.0729C356.065 60.1856 355.902 60.243 355.738 60.243Z" fill="black"/>
<path d="M288.19 12.698C287.634 12.698 287.081 12.5726 286.565 12.3238C285.66 11.8878 284.98 11.1265 284.649 10.178C284.318 9.22952 284.375 8.21086 284.811 7.30492C285.246 6.39898 286.007 5.71846 286.954 5.3867C287.899 5.05495 288.919 5.11237 289.824 5.54833C291.689 6.44789 292.477 8.69786 291.579 10.565C291.143 11.471 290.383 12.1515 289.435 12.4833C289.027 12.6279 288.609 12.698 288.19 12.698ZM288.195 6.58825C287.933 6.58825 287.672 6.63291 287.417 6.72222C286.826 6.92851 286.351 7.35383 286.079 7.91952C285.807 8.4852 285.771 9.12106 285.979 9.71439C286.185 10.3056 286.61 10.782 287.175 11.0542C287.74 11.3264 288.375 11.3625 288.968 11.1541C289.558 10.9478 290.034 10.5225 290.306 9.95682C290.867 8.79143 290.376 7.38361 289.21 6.82218C288.887 6.66693 288.541 6.58825 288.195 6.58825Z" fill="black"/>
<path d="M378.778 225.671C378.676 225.671 378.572 225.648 378.472 225.601C378.122 225.431 377.973 225.01 378.143 224.659L379.723 221.371C379.891 221.02 380.314 220.874 380.664 221.042C381.015 221.212 381.164 221.633 380.994 221.984L379.413 225.271C379.292 225.525 379.039 225.671 378.778 225.671Z" fill="black"/>
<path d="M375.094 233.331C374.992 233.331 374.888 233.308 374.789 233.261C374.438 233.093 374.289 232.67 374.459 232.319L376.04 229.031C376.21 228.68 376.63 228.534 376.981 228.702C377.331 228.872 377.48 229.293 377.31 229.644L375.73 232.932C375.609 233.185 375.358 233.331 375.094 233.331Z" fill="black"/>
<path d="M375.543 226.805C375.441 226.805 375.337 226.781 375.237 226.735L371.953 225.152C371.602 224.984 371.453 224.561 371.623 224.21C371.791 223.859 372.214 223.713 372.564 223.881L375.849 225.463C376.199 225.631 376.348 226.054 376.178 226.405C376.057 226.658 375.806 226.805 375.543 226.805Z" fill="black"/>
<path d="M383.194 230.492C383.092 230.492 382.988 230.469 382.888 230.422L379.604 228.84C379.254 228.672 379.105 228.249 379.275 227.898C379.445 227.547 379.866 227.4 380.216 227.568L383.5 229.15C383.851 229.321 383.999 229.742 383.83 230.092C383.708 230.346 383.458 230.492 383.194 230.492Z" fill="black"/>
<path d="M8.59696 253.632C8.26982 253.632 7.97667 253.402 7.90869 253.071C2.44929 226.845 4.92408 202.682 16.1828 172.278C16.3187 171.912 16.7244 171.727 17.0877 171.861C17.4531 171.997 17.6379 172.403 17.5041 172.767C6.3431 202.906 3.88531 226.835 9.28735 252.781C9.36594 253.162 9.12165 253.536 8.74141 253.615C8.69255 253.628 8.64369 253.632 8.59696 253.632Z" fill="black"/>
<path d="M11.5072 227.02C11.1227 227.02 10.8083 226.711 10.802 226.324C10.5683 210.851 13.3384 198.876 15.5646 189.255C15.7664 188.383 15.964 187.528 16.1551 186.69C16.2422 186.309 16.6204 186.073 16.9985 186.159C17.3787 186.246 17.6145 186.624 17.5296 187.003C17.3384 187.841 17.1408 188.696 16.939 189.572C14.7298 199.118 11.9831 211 12.2125 226.303C12.2189 226.692 11.9066 227.013 11.5178 227.02C11.5157 227.02 11.5115 227.02 11.5072 227.02Z" fill="black"/>
<path d="M59.7602 288.651C59.7602 288.651 68.9881 291.716 72.7841 291.331C78.1246 290.786 84.0301 274.303 84.4422 273.169C84.8543 272.036 86.2712 265.971 87.6562 263.927C88.9584 262.007 89.891 259.976 90.4135 258.717C90.7279 257.958 91.3227 257.666 91.8347 257.836C92.285 257.985 93.0731 258.702 92.6207 259.835C92.096 261.145 91.6053 262.47 91.1677 263.593C91.0296 263.946 90.8256 264.267 91.123 264.05C91.8156 263.544 92.6886 263.079 93.2601 263.404C94.3307 264.014 94.9085 268.112 93.1772 270.99C91.4459 273.867 89.5468 273.191 88.969 274.586C88.3912 275.981 83.6052 294.1 81.6403 297.234C78.8128 301.741 59.0528 302.228 56.0852 302.14C53.1176 302.051 59.7602 288.651 59.7602 288.651Z" fill="white"/>
<path d="M56.1935 302.844C56.1171 302.844 56.0725 302.844 56.064 302.844C55.5648 302.83 55.1505 302.591 54.8999 302.172C53.5658 299.946 57.7995 291.02 59.1293 288.337L59.4012 287.788L59.9832 287.981C60.0746 288.011 69.1113 290.997 72.7119 290.627C76.2765 290.263 80.8904 280.895 83.7582 272.982L83.7773 272.927C83.8729 272.663 84.0492 272.032 84.2553 271.298C84.9393 268.848 85.9738 265.146 87.0699 263.529C88.302 261.711 89.2133 259.761 89.7614 258.445C90.2011 257.39 91.1422 256.865 92.0556 257.164C92.4507 257.296 92.9754 257.658 93.2643 258.281C93.4449 258.668 93.5915 259.297 93.2728 260.095C92.9457 260.916 92.6292 261.741 92.3318 262.519C92.3126 262.568 92.2935 262.617 92.2765 262.664C92.7842 262.532 93.2282 262.572 93.6063 262.787C94.233 263.145 94.5644 263.982 94.7301 264.623C95.1974 266.409 95.0827 269.182 93.7784 271.351C92.6695 273.197 91.4672 273.742 90.592 274.139C90.012 274.403 89.7508 274.533 89.6169 274.852C89.4661 275.217 88.9074 277.157 88.2616 279.403C85.9462 287.443 83.5734 295.471 82.2351 297.607C79.0593 302.67 58.0565 302.844 56.1935 302.844ZM60.1235 289.51C57.3576 295.197 55.4989 300.701 56.1128 301.454C60.5143 301.568 78.6259 300.711 81.0412 296.858C82.3859 294.712 85.2176 284.885 86.9085 279.013C87.7136 276.215 88.1427 274.735 88.3169 274.316C88.6674 273.467 89.3514 273.157 90.0099 272.857C90.7959 272.5 91.6881 272.096 92.5718 270.626C93.6531 268.829 93.7444 266.451 93.3727 265.001C93.1963 264.314 92.9733 264.055 92.9096 264.016C92.831 263.97 92.4061 263.985 91.5373 264.62C91.0359 264.988 90.6684 264.774 90.5346 264.667C90.0843 264.304 90.3116 263.791 90.422 263.544C90.4496 263.481 90.4815 263.41 90.5112 263.336C90.6727 262.921 90.8426 262.477 91.019 262.015C91.3185 261.231 91.6371 260.397 91.9664 259.57C92.0726 259.302 92.0811 259.074 91.9876 258.876C91.8857 258.657 91.6881 258.53 91.6138 258.504C91.4353 258.447 91.2059 258.642 91.0636 258.987C90.4921 260.363 89.5383 262.404 88.2383 264.321C87.2717 265.748 86.233 269.458 85.6127 271.677C85.3832 272.5 85.2176 273.093 85.1028 273.408L85.0837 273.463C83.123 278.871 78.0077 291.505 72.8542 292.031C69.4745 292.379 62.2477 290.185 60.1235 289.51Z" fill="black"/>
<path d="M49.2132 376.19C49.2132 376.19 42.664 378.472 38.8403 377.459C38.8403 377.459 34.0841 381.6 34.1478 383.788L50.783 383.465L49.2132 376.19Z" fill="white"/>
<path d="M33.4638 384.507L33.4446 383.807C33.3767 381.406 37.5445 377.653 38.3793 376.925L38.6619 376.681L39.023 376.777C42.596 377.725 48.92 375.545 48.9816 375.524L49.7336 375.262L51.654 384.156L33.4638 384.507ZM39.0357 378.229C37.4956 379.616 35.5817 381.706 35.0166 383.065L49.9142 382.776L48.6885 377.1C46.8849 377.657 42.2668 378.899 39.0357 378.229Z" fill="black"/>
<path d="M42.082 376.706C42.082 376.706 37.9779 371.796 36.1595 371.711C34.6279 371.639 22.4303 382.891 18.5492 386.644C17.8631 387.308 18.1541 388.49 19.076 388.726C21.3575 389.307 26.5854 389.294 38.3135 385.236C38.9253 385.024 39.3714 384.484 39.4627 383.835L39.9662 380.232L37.5042 379.922L42.082 376.706Z" fill="white"/>
<path d="M21.6634 389.7C20.4802 389.7 19.5816 389.581 18.9018 389.409C18.2263 389.236 17.7144 388.726 17.5338 388.043C17.3511 387.357 17.555 386.627 18.0606 386.136C18.2178 385.985 33.8164 371.005 36.168 371.005C36.1765 371.005 36.185 371.005 36.1913 371.005C38.2158 371.098 41.9014 375.392 42.6215 376.253C42.749 376.404 42.8063 376.602 42.7809 376.798C42.7554 376.993 42.6491 377.17 42.4877 377.283L39.4054 379.45L40.0575 379.533C40.2445 379.556 40.4144 379.654 40.5291 379.805C40.6438 379.954 40.6927 380.145 40.6672 380.332L40.1637 383.935C40.0363 384.849 39.416 385.604 38.5472 385.906C30.0246 388.849 24.8265 389.7 21.6634 389.7ZM36.1637 372.417C34.5833 372.813 24.2083 382.153 19.0399 387.15C18.8296 387.352 18.8763 387.607 18.8955 387.68C18.9188 387.767 18.9996 387.978 19.2502 388.041C21.1408 388.522 26.1031 388.713 38.0841 384.569C38.4495 384.443 38.7107 384.122 38.766 383.735L39.1717 380.843L37.4192 380.622C37.1303 380.585 36.8924 380.375 36.8223 380.092C36.7522 379.809 36.8626 379.511 37.1005 379.346L41.0411 376.577C39.2524 374.535 37.0411 372.513 36.1637 372.417Z" fill="black"/>
<path d="M30.0628 388.437C29.7633 388.437 29.485 388.243 29.3915 387.944L28.3464 384.624C28.2296 384.252 28.4356 383.856 28.8074 383.739C29.1791 383.622 29.5742 383.828 29.6911 384.201L30.7362 387.52C30.853 387.892 30.647 388.288 30.2752 388.405C30.2051 388.426 30.1329 388.437 30.0628 388.437Z" fill="black"/>
<path d="M32.1148 387.546C31.8153 387.546 31.537 387.352 31.4436 387.052L30.3984 383.733C30.2816 383.361 30.4876 382.965 30.8594 382.848C31.2311 382.733 31.6263 382.937 31.7431 383.31L32.7882 386.629C32.9051 387.001 32.699 387.397 32.3273 387.514C32.2572 387.535 32.1849 387.546 32.1148 387.546Z" fill="black"/>
<path d="M21.0941 387.616C20.8944 387.616 20.6968 387.531 20.5588 387.369C20.306 387.074 20.34 386.627 20.6374 386.374L36.2232 373.036C36.5185 372.783 36.9646 372.819 37.2174 373.115C37.4701 373.41 37.4362 373.857 37.1388 374.11L21.5529 387.448C21.4191 387.561 21.2555 387.616 21.0941 387.616Z" fill="black"/>
<path d="M103.535 386.323C103.55 384.762 103.576 382.291 103.622 379.12L108.266 379.782L112.109 376.247C112.109 376.247 123.136 380.286 128.476 385.392C129.471 386.342 128.967 388.033 127.616 388.241C123.542 388.864 114.11 389.451 105.394 388.454C104.325 388.331 103.525 387.41 103.535 386.323Z" fill="white"/>
<path d="M115.546 389.698C112.275 389.698 108.748 389.547 105.315 389.154C103.886 388.99 102.819 387.769 102.832 386.317C102.847 384.756 102.872 382.282 102.919 379.109C102.921 378.907 103.013 378.714 103.166 378.584C103.319 378.452 103.522 378.395 103.722 378.423L108.034 379.037L111.631 375.73C111.824 375.552 112.102 375.496 112.349 375.588C112.806 375.756 123.578 379.737 128.963 384.883C129.626 385.517 129.868 386.455 129.592 387.331C129.322 388.188 128.604 388.805 127.72 388.939C125.171 389.328 120.67 389.698 115.546 389.698ZM104.315 379.93C104.277 382.716 104.253 384.902 104.24 386.329C104.234 387.059 104.763 387.671 105.475 387.752C114.091 388.737 123.563 388.145 127.51 387.542C127.865 387.488 128.141 387.248 128.249 386.904C128.364 386.54 128.268 386.166 127.992 385.902C123.382 381.496 114.28 377.838 112.266 377.062L108.744 380.3C108.589 380.443 108.376 380.509 108.168 380.479L104.315 379.93Z" fill="black"/>
<path d="M116.602 387.371C111.642 387.371 107.882 387.038 107.82 387.033C107.433 386.997 107.147 386.655 107.183 386.266C107.217 385.879 107.557 385.594 107.947 385.625C108.045 385.634 117.806 386.497 126.586 385.411C126.972 385.362 127.323 385.638 127.372 386.023C127.419 386.41 127.144 386.763 126.758 386.81C123.312 387.24 119.72 387.371 116.602 387.371Z" fill="black"/>
<path d="M118.785 384.488C118.737 384.488 118.69 384.483 118.641 384.473C118.261 384.392 118.016 384.02 118.095 383.637L118.972 379.439C119.053 379.058 119.425 378.812 119.807 378.893C120.187 378.973 120.432 379.346 120.353 379.728L119.476 383.926C119.406 384.258 119.113 384.488 118.785 384.488Z" fill="black"/>
<path d="M116.733 383.597C116.684 383.597 116.638 383.592 116.589 383.582C116.209 383.501 115.964 383.129 116.043 382.746L116.92 378.548C117.001 378.165 117.373 377.919 117.755 378.002C118.135 378.082 118.38 378.455 118.301 378.837L117.424 383.035C117.354 383.367 117.06 383.597 116.733 383.597Z" fill="black"/>
<path d="M70.5155 336.064C70.7385 335.875 91.6478 320.744 97.3536 322.369C107.108 325.146 105.209 354.519 105.007 362.288C104.81 369.852 69.3429 347.146 68.251 345.154C67.1697 343.187 66.5069 339.467 70.5155 336.064Z" fill="black"/>
<path d="M104.684 360.331C104.716 360.361 104.748 360.389 104.78 360.416C110.896 365.948 113.413 371.447 112.976 378.527C112.549 385.447 102.828 390.391 71.363 386.787C64.7459 385.83 51.4798 385.064 45.7379 384.881C44.5483 384.843 43.6093 383.848 43.6263 382.644L43.7071 377.164C43.7177 376.392 44.1255 375.683 44.7819 375.292C48.2551 373.221 57.2132 367.93 71.9727 368.5C72.4613 368.519 72.3806 368 71.9026 367.894C63.8027 366.09 51.2971 365.25 47.7984 362.279C41.0262 356.527 42.2838 346.321 43.7495 340.094C48.0278 321.92 74.7428 340.894 74.9297 340.939C74.9318 340.939 74.9297 340.939 74.9318 340.939C74.9849 340.971 78.5474 343.065 83.2484 345.94L104.684 360.331Z" fill="black"/>
<path d="M90.0376 372.63C89.9123 372.63 89.7869 372.596 89.6722 372.528C89.6021 372.485 83.754 369.042 69.8357 368.712C69.447 368.704 69.139 368.381 69.1474 367.989C69.1559 367.604 69.4703 367.3 69.8527 367.3C69.8591 367.3 69.8633 367.3 69.8697 367.3C84.2426 367.641 90.1629 371.173 90.4072 371.322C90.7386 371.526 90.8427 371.96 90.6409 372.292C90.5071 372.511 90.2755 372.63 90.0376 372.63Z" fill="white"/>
<path d="M102.934 359.6C102.783 359.6 102.632 359.551 102.503 359.453C102.333 359.321 85.4683 346.334 73.7614 343.406C73.3833 343.312 73.1538 342.929 73.2473 342.551C73.3408 342.172 73.7231 341.942 74.1013 342.038C86.0928 345.035 103.193 358.205 103.365 358.337C103.673 358.575 103.731 359.019 103.491 359.328C103.353 359.504 103.144 359.6 102.934 359.6Z" fill="#E6ECF0"/>
<path d="M75.9578 268.057C75.9578 268.057 79.5117 267.019 76.9966 260.946C74.4645 254.832 67.7029 257.452 65.056 257.392C62.4113 257.335 56.8414 253.549 54.8914 252.692C52.9413 251.835 46.458 247.733 38.5663 256.191C38.5663 256.191 37.3873 258.332 30.3305 258.706C24.1892 259.032 13.9608 263.98 18.6618 271.589C20.0171 273.784 22.1159 275.33 24.4972 276.004C24.9284 276.125 25.3979 276.238 25.9056 276.33C27.3692 276.595 28.6183 277.625 29.1855 279.09C31.0315 283.86 36.7118 292.788 51.3821 281.087C52.4888 280.204 53.9121 279.922 55.2397 280.3C56.8733 280.766 58.9126 283.141 66.1692 281.057C70.8298 279.717 71.5988 274.309 72.5165 271.774C73.5956 268.799 75.9578 268.057 75.9578 268.057Z" fill="black"/>
<path d="M74.9297 268.395C74.9297 268.395 75.3036 269.505 75.4778 269.992C75.6413 270.454 75.9833 271.998 77.396 273.527C77.5319 273.673 77.5319 273.901 77.4045 274.052L76.4209 275.228C76.353 275.309 76.3211 275.413 76.336 275.519C76.4209 276.17 76.7332 278.558 76.7183 279.016C76.7013 279.545 76.3551 280.06 76.166 280.2C75.6689 280.57 73.3004 280.6 73.3004 280.6C73.3004 280.6 72.6843 280.747 71.9302 284.258C71.3991 286.729 75.0826 289.296 75.0826 289.296C75.0826 289.296 66.8086 292.639 59.8452 289.732C59.414 289.551 59.3906 288.934 59.7645 288.651C61.243 287.537 64.4251 284.828 65.6997 281.297C65.7762 281.087 65.9312 280.915 66.1394 280.827C66.9828 280.468 69.2834 279.813 68.8734 275.93C68.8628 275.83 68.8266 275.734 68.7672 275.653C68.2786 274.975 66.0502 271.632 69.8782 272.102C72.406 272.41 73.175 270.558 73.3938 269.709C73.4661 269.433 73.6466 269.195 73.893 269.042L74.9297 268.395Z" fill="white"/>
<path d="M66.2902 291.631C64.1214 291.631 61.791 291.307 59.569 290.38C59.1484 290.204 58.8616 289.823 58.8022 289.357C58.7406 288.866 58.9445 288.379 59.3354 288.086C60.6397 287.103 63.8048 284.451 65.0327 281.055C65.175 280.659 65.4766 280.338 65.859 280.177L66.0481 280.098C66.9594 279.73 68.4846 279.113 68.1702 276.034C67.5032 275.1 66.5175 273.397 67.2016 272.238C67.6328 271.509 68.5611 271.228 69.9589 271.398C71.7751 271.623 72.4549 270.505 72.7077 269.529C72.8245 269.076 73.1113 268.689 73.517 268.438L74.5558 267.793C74.7385 267.681 74.9637 267.657 75.1655 267.73C75.3673 267.802 75.5266 267.963 75.5946 268.168C75.5946 268.168 75.9663 269.271 76.1384 269.754C76.1618 269.82 76.1894 269.907 76.2213 270.011C76.4039 270.603 76.7863 271.83 77.9101 273.044C78.2861 273.45 78.2988 274.078 77.9419 274.503L77.0497 275.568C77.2027 276.727 77.4321 278.58 77.4172 279.037C77.3917 279.817 76.9138 280.515 76.5824 280.764C76.0471 281.163 74.5877 281.272 73.5956 281.297C73.4321 281.561 73.0582 282.337 72.6142 284.404C72.2616 286.048 74.5622 288.073 75.4799 288.715C75.6923 288.864 75.8049 289.117 75.7773 289.374C75.7475 289.632 75.5818 289.853 75.3418 289.949C75.1039 290.046 71.0975 291.631 66.2902 291.631ZM60.2743 289.147C65.3577 291.186 71.2037 289.798 73.6488 289.041C72.4868 287.99 70.815 286.082 71.2398 284.109C72.0003 280.572 72.6865 280.019 73.1368 279.913C73.1878 279.9 73.2388 279.894 73.2919 279.894C74.3668 279.881 75.5224 279.751 75.7645 279.62C75.8049 279.575 76.0046 279.271 76.0131 278.992C76.0216 278.739 75.8665 277.348 75.6371 275.613C75.5967 275.313 75.6859 275.009 75.8792 274.775L76.695 273.799C75.4947 272.417 75.0656 271.036 74.8787 270.43C74.8532 270.347 74.832 270.279 74.8129 270.226C74.7449 270.033 74.6429 269.741 74.5473 269.461L74.2605 269.639C74.1671 269.697 74.0991 269.786 74.0736 269.884C73.8718 270.666 72.9647 273.189 69.7889 272.802C68.8458 272.685 68.4825 272.846 68.4167 272.959C68.2595 273.225 68.5675 274.171 69.3343 275.241C69.4639 275.422 69.5446 275.634 69.568 275.855C70.0077 280.024 67.5138 281.03 66.5749 281.41L66.4092 281.478C66.3773 281.491 66.3625 281.523 66.3561 281.54C65.073 285.093 62.0353 287.805 60.2743 289.147Z" fill="black"/>
<path d="M69.6572 276.685C68.9562 276.685 68.3189 276.298 67.8728 275.59C67.6646 275.26 67.7645 274.824 68.0937 274.616C68.423 274.407 68.8585 274.507 69.0667 274.837C69.2366 275.107 69.4193 275.251 69.6083 275.271C69.8101 275.29 70.0035 275.179 70.0778 275.122C70.2308 274.847 70.5515 274.701 70.8702 274.784C71.2462 274.881 71.4735 275.266 71.3757 275.645C71.2419 276.164 70.5515 276.568 69.961 276.661C69.8569 276.676 69.757 276.685 69.6572 276.685Z" fill="black"/>
<path d="M77.2558 273.973C76.9116 273.973 76.61 273.72 76.559 273.369C76.5038 272.984 76.7693 272.625 77.1559 272.57C77.6042 272.504 77.7677 272.302 77.8527 272.157C78.182 271.585 78.0099 270.547 77.8145 269.831L70.1989 272.134C69.825 272.247 69.4321 272.036 69.3195 271.662C69.2069 271.29 69.4172 270.894 69.7911 270.783L78.0651 268.283C78.4156 268.176 78.7895 268.357 78.9233 268.697C79.0295 268.965 79.9409 271.36 79.0742 272.863C78.7215 273.474 78.1289 273.856 77.3599 273.969C77.3238 273.969 77.2898 273.973 77.2558 273.973Z" fill="black"/>
<path d="M70.9551 277.255C70.8787 276.908 70.5409 276.691 70.201 276.768C69.859 276.844 69.6445 277.187 69.7188 277.533C69.7953 277.88 70.133 278.097 70.4729 278.02C70.8149 277.944 71.0295 277.601 70.9551 277.255Z" fill="#004368"/>
<path d="M138.316 240.33L88.1087 247.282C85.8463 247.595 84.1044 249.811 84.217 252.229L85.2961 275.468C85.4066 277.848 87.3121 279.552 89.5553 279.277L139.306 273.165C141.664 272.876 143.523 270.654 143.45 268.202L142.758 244.247C142.688 241.757 140.695 240.001 138.316 240.33Z" fill="#E6ECF0"/>
<path d="M92.3063 279.645C91.9557 279.645 91.652 279.383 91.6074 279.026C91.5606 278.639 91.8347 278.288 92.2213 278.239L119.465 274.892C119.85 274.85 120.202 275.12 120.251 275.507C120.298 275.894 120.024 276.245 119.637 276.293L92.3933 279.641C92.3636 279.643 92.3339 279.645 92.3063 279.645Z" fill="#004368"/>
<path d="M88.8586 280.038C87.8198 280.038 86.832 279.681 86.0312 279.005C85.0264 278.156 84.4379 276.921 84.3721 275.53L83.9196 265.828C83.9005 265.439 84.2022 265.11 84.5909 265.09C84.9903 265.071 85.3089 265.373 85.328 265.762L85.7805 275.464C85.8272 276.459 86.2393 277.333 86.9403 277.927C87.5798 278.469 88.3997 278.709 89.2494 278.605L92.2213 278.239C92.6037 278.195 92.9584 278.467 93.0073 278.854C93.054 279.241 92.78 279.592 92.3934 279.641L89.4215 280.007C89.2324 280.028 89.0455 280.038 88.8586 280.038Z" fill="#004368"/>
<path d="M142.907 258.128C142.526 258.128 142.214 257.826 142.203 257.443L141.823 244.298C141.793 243.267 141.379 242.363 140.659 241.753C139.981 241.179 139.1 240.934 138.18 241.062L87.9834 248.011C86.0779 248.275 84.6058 250.166 84.7014 252.224C84.7205 252.614 84.4188 252.943 84.0301 252.962C83.6371 252.986 83.3121 252.679 83.293 252.29C83.1634 249.521 85.1814 246.974 87.79 246.612L137.987 239.662C139.31 239.479 140.583 239.839 141.57 240.675C142.601 241.547 143.191 242.82 143.234 244.258L143.614 257.403C143.625 257.792 143.319 258.117 142.93 258.128C142.921 258.128 142.913 258.128 142.907 258.128Z" fill="#004368"/>
<path d="M138.477 249.585C138.509 250.657 137.706 251.635 136.682 251.771L100.723 256.558C99.7348 256.69 98.8979 255.946 98.8554 254.898C98.8108 253.847 99.5755 252.888 100.565 252.754L136.566 247.895C137.587 247.756 138.446 248.513 138.477 249.585Z" fill="white"/>
<path d="M138.813 260.701C138.845 261.764 138.044 262.732 137.022 262.864L101.173 267.447C100.187 267.572 99.3546 266.83 99.31 265.788C99.2654 264.746 100.03 263.795 101.016 263.668L136.903 259.013C137.927 258.881 138.781 259.638 138.813 260.701Z" fill="white"/>
<path d="M95.7348 255.436C95.8219 257.464 94.3498 259.31 92.4486 259.561L92.2277 259.591C90.3307 259.842 88.7226 258.409 88.6313 256.386L88.6206 256.15C88.5293 254.126 89.9929 252.275 91.8941 252.016L92.1172 251.986C94.0227 251.727 95.6392 253.166 95.7263 255.197L95.7348 255.436Z" fill="white"/>
<path d="M96.9925 296.63C96.9925 296.63 106.22 299.695 110.016 299.31C115.357 298.766 121.262 282.282 121.674 281.149C122.087 280.015 123.503 273.95 124.888 271.906C126.191 269.986 127.123 267.955 127.646 266.696C127.96 265.937 128.555 265.645 129.067 265.816C129.517 265.964 130.305 266.681 129.853 267.815C129.328 269.125 128.838 270.45 128.4 271.572C128.262 271.925 128.058 272.247 128.355 272.03C129.048 271.524 134.528 264.672 135.098 264.997C136.168 265.607 134.556 276.664 132.827 279.541C131.096 282.418 126.777 281.17 126.201 282.565C125.623 283.96 120.837 302.079 118.873 305.214C116.045 309.72 96.2851 310.207 93.3175 310.12C90.3498 310.032 96.9925 296.63 96.9925 296.63Z" fill="white"/>
<path d="M93.4258 310.826C93.3493 310.826 93.3047 310.826 93.2962 310.826C92.797 310.811 92.3828 310.573 92.1321 310.154C90.7981 307.927 95.0318 299.002 96.3616 296.318L96.6335 295.769L97.2155 295.963C97.3069 295.992 106.346 298.974 109.946 298.608C113.509 298.245 118.125 288.875 120.993 280.964L121.012 280.908C121.107 280.645 121.284 280.013 121.49 279.279C122.174 276.829 123.208 273.127 124.304 271.511C125.539 269.69 126.448 267.742 126.996 266.426C127.436 265.371 128.377 264.846 129.288 265.146C129.683 265.278 130.208 265.639 130.497 266.262C130.677 266.649 130.824 267.279 130.505 268.076C130.382 268.382 130.263 268.689 130.144 268.995C134.22 264.306 134.73 263.976 135.444 264.384C135.712 264.538 135.896 264.812 136.003 265.222C136.606 267.53 135.091 277.14 133.428 279.905C132.241 281.878 130.072 282.186 128.487 282.41C127.907 282.49 126.934 282.629 126.849 282.835C126.698 283.201 126.14 285.14 125.494 287.386C123.178 295.427 120.806 303.455 119.467 305.59C116.292 310.651 95.2888 310.826 93.4258 310.826ZM97.3557 297.49C94.5899 303.176 92.7312 308.678 93.3451 309.433C97.7466 309.545 115.858 308.691 118.276 304.837C119.62 302.691 122.452 292.864 124.141 286.993C124.948 284.194 125.375 282.714 125.549 282.293C125.942 281.342 127.083 281.18 128.292 281.01C129.74 280.806 131.38 280.574 132.222 279.175C133.696 276.725 134.926 268.493 134.728 266.058C133.796 266.936 132.026 268.976 130.983 270.177C129.602 271.77 129.052 272.391 128.77 272.597C128.268 272.965 127.901 272.753 127.767 272.644C127.317 272.281 127.544 271.768 127.654 271.521C127.682 271.458 127.714 271.385 127.741 271.313C127.903 270.9 128.071 270.458 128.245 270.001C128.544 269.214 128.865 268.378 129.197 267.549C129.303 267.281 129.311 267.053 129.218 266.853C129.116 266.634 128.918 266.507 128.844 266.481C128.661 266.424 128.438 266.619 128.294 266.964C127.722 268.34 126.768 270.381 125.468 272.3C124.502 273.727 123.463 277.438 122.843 279.656C122.613 280.479 122.448 281.072 122.333 281.387L122.314 281.44C120.353 286.848 115.236 299.484 110.084 300.008C106.709 300.354 99.48 298.166 97.3557 297.49Z" fill="black"/>
<path d="M46.8234 332.007C48.6778 328.417 48.7267 317.741 48.68 314.041C47.8366 292.094 55.9068 288.058 58.6237 287.32C62.5175 286.567 67.038 286.416 72.3508 287.101C81.5681 288.288 100.565 296.137 100.565 296.137C100.565 296.137 93.5277 311.702 93.3684 311.736C86.2627 313.256 85.8931 313.535 85.447 315.126C84.8139 317.38 84.7991 318.826 83.2144 320.34C80.4847 322.952 78.5728 322.433 77.6381 324.115C74.0842 330.512 73.2685 333.98 72.1193 338.887C70.0991 347.529 54.783 344.324 47.0549 341.315C46.2116 340.985 44.1446 340.394 43.8876 339.746C43.6348 339.106 43.741 338.499 44.7288 336.081C45.3002 334.689 46.0416 333.519 46.8234 332.007Z" fill="#004368"/>
</svg>
