<svg width="18" height="18" viewBox="0 0 18 18" fill="none" xmlns="http://www.w3.org/2000/svg">
<path d="M15 16.5002V12.7502C15 11.336 15 10.6289 14.5606 10.1896C14.1213 9.75024 13.4142 9.75024 12 9.75024L9 16.5002L6 9.75024C4.58579 9.75024 3.87868 9.75024 3.43934 10.1896C3 10.6289 3 11.336 3 12.7502V16.5002" stroke="#004368" stroke-width="1.5" stroke-linecap="round" stroke-linejoin="round"/>
<path d="M9 11.25L8.625 14.25L9 15.375L9.375 14.25L9 11.25ZM9 11.25L8.25 9.75H9.75L9 11.25Z" stroke="#B0C5D0" stroke-linecap="round" stroke-linejoin="round"/>
<path d="M11.625 4.875V4.125C11.625 2.67526 10.4497 1.5 9 1.5C7.55025 1.5 6.375 2.67526 6.375 4.125V4.875C6.375 6.32475 7.55025 7.49998 9 7.49998C10.4497 7.49998 11.625 6.32475 11.625 4.875Z" stroke="#004368" stroke-width="1.5" stroke-linecap="round" stroke-linejoin="round"/>
</svg>
