<svg width="18" height="18" viewBox="0 0 18 18" fill="none" xmlns="http://www.w3.org/2000/svg">
<path d="M10.125 3.375C10.125 2.75368 9.6213 2.25 9 2.25C8.3787 2.25 7.875 2.75368 7.875 3.375C7.875 3.99632 8.3787 4.5 9 4.5C9.6213 4.5 10.125 3.99632 10.125 3.375Z" stroke="#004368"/>
<path d="M10.125 9C10.125 8.3787 9.6213 7.875 9 7.875C8.3787 7.875 7.875 8.3787 7.875 9C7.875 9.6213 8.3787 10.125 9 10.125C9.6213 10.125 10.125 9.6213 10.125 9Z" stroke="#B0C5D0"/>
<path d="M10.125 14.625C10.125 14.0037 9.6213 13.5 9 13.5C8.3787 13.5 7.875 14.0037 7.875 14.625C7.875 15.2463 8.3787 15.75 9 15.75C9.6213 15.75 10.125 15.2463 10.125 14.625Z" stroke="#004368"/>
</svg>
