<svg width="18" height="18" viewBox="0 0 18 18" fill="none" xmlns="http://www.w3.org/2000/svg">
<path d="M10.875 14.25H9.37498C7.25368 14.25 6.19302 14.25 5.53401 13.591C4.875 12.9319 4.875 11.8713 4.875 9.75V6C4.875 3.87868 4.875 2.81802 5.53401 2.15901C6.19302 1.5 7.25368 1.5 9.37498 1.5H10.3824C10.9955 1.5 11.302 1.5 11.5777 1.61418C11.8534 1.72836 12.0701 1.94513 12.5037 2.37868L14.4963 4.37132C14.9299 4.80486 15.1466 5.02164 15.2608 5.29729C15.375 5.57295 15.375 5.87951 15.375 6.49264V9.75C15.375 11.8713 15.375 12.9319 14.716 13.591C14.057 14.25 12.9963 14.25 10.875 14.25Z" stroke="#004368" stroke-linecap="round" stroke-linejoin="round"/>
<path d="M11.25 1.875V2.625C11.25 4.03921 11.25 4.74632 11.6894 5.18566C12.1287 5.625 12.8358 5.625 14.25 5.625H15" stroke="#004368" stroke-linecap="round" stroke-linejoin="round"/>
<path d="M4.87451 3.75C3.63187 3.75 2.62451 4.75736 2.62451 6V12C2.62451 14.1214 2.62451 15.182 3.28352 15.841C3.94253 16.5 5.00319 16.5 7.12451 16.5H10.8748C12.1174 16.5 13.1248 15.4926 13.1248 14.25" stroke="#004368" stroke-linecap="round" stroke-linejoin="round"/>
<path d="M7.5 8.25H10.5M7.5 11.25H12.75" stroke="#B0C5D0" stroke-linecap="round" stroke-linejoin="round"/>
</svg>
