<svg width="18" height="18" viewBox="0 0 18 18" fill="none" xmlns="http://www.w3.org/2000/svg">
<path d="M10.5 2.625C13.3284 2.625 14.7427 2.625 15.6213 3.5586C16.5 4.49219 16.5 5.9948 16.5 9C16.5 12.0052 16.5 13.5078 15.6213 14.4414C14.7427 15.375 13.3284 15.375 10.5 15.375H7.5C4.67157 15.375 3.25736 15.375 2.37868 14.4414C1.5 13.5078 1.5 12.0052 1.5 9C1.5 5.9948 1.5 4.49219 2.37868 3.5586C3.25736 2.625 4.67157 2.625 7.5 2.625H10.5Z" stroke="#004368" stroke-linejoin="round"/>
<path d="M3.75 11.625C4.95649 10.022 7.76542 9.93453 9 11.625M7.68675 7.68761C7.68675 8.41248 7.09914 9.00011 6.37426 9.00011C5.6494 9.00011 5.06177 8.41248 5.06177 7.68761C5.06177 6.96275 5.6494 6.37512 6.37426 6.37512C7.09914 6.37512 7.68675 6.96275 7.68675 7.68761Z" stroke="#004368" stroke-linecap="round"/>
<path d="M11.25 7.125H14.25" stroke="#B0C5D0" stroke-linecap="round"/>
<path d="M11.25 10.125H12.75" stroke="#B0C5D0" stroke-linecap="round"/>
</svg>
