<svg width="18" height="18" viewBox="0 0 18 18" fill="none" xmlns="http://www.w3.org/2000/svg">
<path d="M14.6249 7.5C14.6249 4.67157 14.6249 3.25736 13.7463 2.37868C12.8676 1.5 11.4534 1.5 8.62492 1.5H7.875C5.04662 1.5 3.63242 1.5 2.75375 2.37867C1.87506 3.25734 1.87505 4.67154 1.87503 7.49995L1.875 10.4999C1.87498 13.3284 1.87496 14.7426 2.75365 15.6213C3.63233 16.5 5.04655 16.5 7.875 16.5H9" stroke="#004368" stroke-linecap="round" stroke-linejoin="round"/>
<path d="M5.25 5.25H11.25M5.25 9H10.125" stroke="#B0C5D0" stroke-linecap="round"/>
<path d="M11.896 16.5H15.104C15.7678 16.5 16.3292 16.049 16.0529 15.5648C15.6101 14.789 14.6335 14.25 13.5 14.25C12.3664 14.25 11.3899 14.789 10.9471 15.5648C10.6708 16.049 11.2321 16.5 11.896 16.5Z" stroke="#B0C5D0" stroke-linejoin="round"/>
<path d="M13.4977 12.375C14.2229 12.375 14.8108 11.7874 14.8108 11.0625C14.8108 10.3376 14.2229 9.75 13.4977 9.75C12.7725 9.75 12.1846 10.3376 12.1846 11.0625C12.1846 11.7874 12.7725 12.375 13.4977 12.375Z" stroke="#B0C5D0"/>
</svg>
