<svg width="18" height="18" viewBox="0 0 18 18" fill="none" xmlns="http://www.w3.org/2000/svg">
<path d="M4.88501 12H7.885M4.88501 8.25H10.885" stroke="#004368" stroke-linecap="round"/>
<path d="M7.51001 16.5H8.26001" stroke="#B0C5D0" stroke-linecap="round"/>
<path d="M5.63236 16.5C4.77043 16.4812 4.18957 16.5 3.44007 16.3312C2.65309 16.125 2.16592 15.6375 1.99729 14.6625C1.82864 14.025 1.88286 11.1928 1.88486 8.49375C1.88641 6.39914 1.9003 4.4995 2.07223 4.10625C2.31583 3.2625 2.87795 2.6625 4.62054 2.64375M12.0218 2.64375C12.6214 2.7 14.1887 2.64375 14.4952 4.36875C14.6617 5.30625 14.6263 6.6375 14.6263 8.23125M6.13828 4.125C6.92525 4.14375 9.45478 4.125 10.3168 4.125C11.1787 4.125 11.6341 3.41557 11.6284 2.75625C11.6224 2.08444 11.0287 1.56013 10.4479 1.5C9.73588 1.5 6.71914 1.5 6.11953 1.5C5.42625 1.5375 4.95781 2.1 4.88286 2.6625C4.80791 3.43125 5.37004 4.0875 6.13828 4.125Z" stroke="#004368" stroke-linecap="round"/>
<path d="M13.7083 10.7813C12.6777 11.8313 10.6915 13.7063 10.6915 13.8375C10.5313 14.0601 10.3917 14.5125 10.298 15.15C10.1803 15.741 10.0394 16.2563 10.2043 16.4063C10.3693 16.5563 10.9902 16.4298 11.6471 16.2938C12.1718 16.2375 12.6589 16.05 12.9025 15.8625C13.2586 15.5474 15.6757 13.1063 15.9568 12.7875C16.1629 12.5063 16.1816 11.9813 16.0018 11.6625C15.9006 11.4375 15.2635 10.8375 15.0574 10.6688C14.6826 10.4438 14.158 10.4063 13.7083 10.7813Z" stroke="#B0C5D0" stroke-linecap="round"/>
</svg>
