<svg width="18" height="18" viewBox="0 0 18 18" fill="none" xmlns="http://www.w3.org/2000/svg">
<path d="M14.625 9.75V7.02631C14.625 4.42118 14.625 3.11862 13.8562 2.30931C13.0873 1.5 11.8498 1.5 9.375 1.5H7.125C4.65013 1.5 3.41269 1.5 2.64385 2.30931C1.875 3.11862 1.875 4.42118 1.875 7.02631V10.9737C1.875 13.5788 1.875 14.8814 2.64385 15.6907C3.41269 16.5 4.65013 16.5 7.125 16.5H8.25" stroke="#004368" stroke-linecap="round" stroke-linejoin="round"/>
<path d="M5.25 1.5L5.31165 1.8699C5.46131 2.76783 5.53613 3.21679 5.85085 3.4834C6.16556 3.75 6.62071 3.75 7.53105 3.75H8.96895C9.8793 3.75 10.3345 3.75 10.6492 3.4834C10.9639 3.21679 11.0387 2.76783 11.1883 1.8699L11.25 1.5" stroke="#004368" stroke-linejoin="round"/>
<path d="M5.25 12H8.25M5.25 8.25H11.25" stroke="#004368" stroke-linecap="round"/>
<path d="M12.375 10.5V11.625" stroke="#B0C5D0" stroke-linecap="round"/>
<path d="M12.375 16.125V17.25" stroke="#B0C5D0" stroke-linecap="round"/>
<path d="M15.75 13.875H14.625" stroke="#B0C5D0" stroke-linecap="round"/>
<path d="M10.125 13.875H9" stroke="#B0C5D0" stroke-linecap="round"/>
<path d="M14.7613 11.4888L13.9658 12.2843" stroke="#B0C5D0" stroke-linecap="round"/>
<path d="M10.7843 15.4658L9.98877 16.2613" stroke="#B0C5D0" stroke-linecap="round"/>
<path d="M14.7613 16.2613L13.9658 15.4658" stroke="#B0C5D0" stroke-linecap="round"/>
<path d="M10.7843 12.2843L9.98877 11.4888" stroke="#B0C5D0" stroke-linecap="round"/>
</svg>
