<svg width="18" height="18" viewBox="0 0 18 18" fill="none" xmlns="http://www.w3.org/2000/svg">
<path d="M2.625 7.02631C2.625 4.42118 2.625 3.11862 3.39385 2.30931C4.16269 1.5 5.40013 1.5 7.875 1.5H10.125C12.5998 1.5 13.8373 1.5 14.6062 2.30931C15.375 3.11862 15.375 4.42118 15.375 7.02631V10.9737C15.375 13.5788 15.375 14.8814 14.6062 15.6907C13.8373 16.5 12.5998 16.5 10.125 16.5H7.875C5.40013 16.5 4.16269 16.5 3.39385 15.6907C2.625 14.8814 2.625 13.5788 2.625 10.9737V7.02631Z" stroke="#004368" stroke-linecap="round" stroke-linejoin="round"/>
<path d="M10.125 8.25H12.75" stroke="#B0C5D0" stroke-linecap="round"/>
<path d="M5.25 9C5.25 9 5.625 9 6 9.75C6 9.75 7.19118 7.875 8.25 7.5" stroke="#004368" stroke-linecap="round" stroke-linejoin="round"/>
<path d="M10.125 12.75H12.75" stroke="#B0C5D0" stroke-linecap="round"/>
<path d="M6 1.5L6.06165 1.8699C6.21131 2.76783 6.28613 3.21679 6.60085 3.4834C6.91556 3.75 7.37071 3.75 8.28105 3.75H9.71895C10.6293 3.75 11.0845 3.75 11.3992 3.4834C11.7139 3.21679 11.7887 2.76783 11.9383 1.8699L12 1.5" stroke="#004368" stroke-linecap="round" stroke-linejoin="round"/>
<path d="M6 12.75H6.75" stroke="#004368" stroke-linecap="round" stroke-linejoin="round"/>
</svg>
