<svg width="8" height="8" viewBox="0 0 8 8" fill="none" xmlns="http://www.w3.org/2000/svg">
<path d="M1.00434 1.66357C0.96439 2.01691 1.18414 2.80758 2.16306 2.80758" stroke="#F0E6FF" stroke-width="0.5" stroke-linecap="round"/>
<path d="M5.86505 2.79372C6.27858 2.85972 7.03775 2.49972 6.99858 1.66772" stroke="#F0E6FF" stroke-width="0.5" stroke-linecap="round"/>
<path d="M6.9976 6.99962C7.0176 6.64762 6.7259 5.85162 5.86633 5.80762" stroke="#F0E6FF" stroke-width="0.5" stroke-linecap="round"/>
<path d="M2.15052 5.82365C1.88336 5.74365 1.00433 6.11165 1.00433 6.99965" stroke="#F0E6FF" stroke-width="0.5" stroke-linecap="round"/>
<path d="M1.00433 4.29956H1.98325" stroke="#F0E6FF" stroke-width="0.5" stroke-linecap="round"/>
<path d="M6.99763 4.29956H6.0387" stroke="#F0E6FF" stroke-width="0.5" stroke-linecap="round"/>
<path d="M4.0011 5.49951V6.75951" stroke="#D0B0FF" stroke-width="0.5" stroke-linecap="round"/>
<path d="M3.10999 2.03951C3.11798 1.69951 3.2818 0.999512 4.00099 0.999512C4.64029 0.999512 4.86205 1.53951 4.89202 2.03951M2.08712 3.13951C2.12708 2.87951 2.43074 2.27151 3.12197 2.21151C3.82119 2.18511 4.78012 2.19551 4.95992 2.22351C5.19565 2.24449 5.76505 2.47951 5.91689 3.13951C5.97082 3.4795 5.94285 3.9595 5.95082 4.2395C5.93885 4.5195 5.97359 5.08733 5.91885 5.3795C5.87892 5.6995 5.66315 6.1555 5.36749 6.4355C4.92795 6.9075 3.72132 7.4035 2.67847 6.4835C2.13906 5.9635 2.1031 5.4595 2.06315 5.2595C2.05244 5.15227 2.05294 4.62533 2.05516 4.1195C2.04717 3.6819 2.05747 3.26011 2.08712 3.13951Z" stroke="#D0B0FF" stroke-width="0.5"/>
</svg>
