<svg width="8" height="8" viewBox="0 0 8 8" fill="none" xmlns="http://www.w3.org/2000/svg">
<path d="M1.00437 1.66357C0.964421 2.01691 1.18417 2.80758 2.16309 2.80758" stroke="#FFD9D9" stroke-width="0.5" stroke-linecap="round"/>
<path d="M5.86502 2.79372C6.27855 2.85972 7.03772 2.49972 6.99855 1.66772" stroke="#FFD9D9" stroke-width="0.5" stroke-linecap="round"/>
<path d="M6.9976 6.99962C7.0176 6.64762 6.7259 5.85162 5.86633 5.80762" stroke="#FFD9D9" stroke-width="0.5" stroke-linecap="round"/>
<path d="M2.15055 5.82365C1.88339 5.74365 1.00436 6.11165 1.00436 6.99965" stroke="#FFD9D9" stroke-width="0.5" stroke-linecap="round"/>
<path d="M1.00436 4.29956H1.98328" stroke="#FFD9D9" stroke-width="0.5" stroke-linecap="round"/>
<path d="M6.99763 4.29956H6.0387" stroke="#FFD9D9" stroke-width="0.5" stroke-linecap="round"/>
<path d="M4.0011 5.49951V6.75951" stroke="#FF0000" stroke-width="0.5" stroke-linecap="round"/>
<path d="M3.10996 2.03951C3.11795 1.69951 3.28177 0.999512 4.00096 0.999512C4.64026 0.999512 4.86202 1.53951 4.89199 2.03951M2.08709 3.13951C2.12705 2.87951 2.43071 2.27151 3.12194 2.21151C3.82116 2.18511 4.78009 2.19551 4.95989 2.22351C5.19562 2.24449 5.76502 2.47951 5.91686 3.13951C5.97079 3.4795 5.94282 3.9595 5.95079 4.2395C5.93882 4.5195 5.97356 5.08733 5.91882 5.3795C5.87889 5.6995 5.66312 6.1555 5.36746 6.4355C4.92792 6.9075 3.72129 7.4035 2.67844 6.4835C2.13903 5.9635 2.10307 5.4595 2.06312 5.2595C2.05241 5.15227 2.05291 4.62533 2.05513 4.1195C2.04714 3.6819 2.05744 3.26011 2.08709 3.13951Z" stroke="#FF0000" stroke-width="0.5"/>
</svg>
